<svg width="80" height="80" viewBox="0 0 80 80" fill="none" xmlns="http://www.w3.org/2000/svg">
<circle opacity="0.1" cx="40" cy="40" r="39.5" stroke="#7C107E"/>
<g opacity="0.1">
<path d="M52.0238 32.9765C51.3727 32.3255 50.5873 32 49.6671 32H46.7504L46.0864 30.2292C45.9214 29.804 45.6199 29.4371 45.1813 29.1288C44.7429 28.8207 44.2937 28.6665 43.8336 28.6665H37.1668C36.7067 28.6665 36.2574 28.8207 35.819 29.1288C35.3806 29.4371 35.079 29.804 34.9141 30.2292L34.25 32H31.3333C30.4131 32 29.6276 32.3255 28.9765 32.9765C28.3255 33.6276 28 34.4131 28 35.3333V47.0001C28 47.9203 28.3255 48.706 28.9765 49.3568C29.6276 50.008 30.4131 50.3335 31.3333 50.3335H49.6667C50.5869 50.3335 51.3723 50.008 52.0235 49.3568C52.6744 48.706 53 47.9203 53 47.0001V35.3333C53.0002 34.4131 52.6746 33.6276 52.0238 32.9765ZM44.6212 45.288C43.4797 46.4295 42.1061 47.0004 40.5001 47.0004C38.894 47.0004 37.5205 46.4295 36.379 45.288C35.2374 44.1466 34.6667 42.7727 34.6667 41.167C34.6667 39.5609 35.2376 38.1874 36.379 37.0458C37.5204 35.9043 38.8941 35.3336 40.5001 35.3336C42.1061 35.3336 43.4797 35.9044 44.6212 37.0458C45.7627 38.1873 46.3335 39.5609 46.3335 41.167C46.3335 42.7727 45.7628 44.1465 44.6212 45.288Z" fill="#7C107E"/>
<path d="M40.4999 37.4167C39.4669 37.4167 38.5836 37.7835 37.8501 38.5171C37.1165 39.2507 36.7498 40.1338 36.7498 41.1671C36.7498 42.1999 37.1165 43.0832 37.8501 43.8167C38.5836 44.5501 39.4668 44.9169 40.4999 44.9169C41.5328 44.9169 42.4162 44.5501 43.1497 43.8167C43.8833 43.0832 44.2501 42.2 44.2501 41.1671C44.2501 40.1338 43.8833 39.2507 43.1497 38.5171C42.4162 37.7835 41.5328 37.4167 40.4999 37.4167Z" fill="#7C107E"/>
</g>
</svg>
