<svg width="156" height="19" viewBox="0 0 156 19" fill="none" xmlns="http://www.w3.org/2000/svg">
<g opacity="0.75">
<path d="M12.72 13.06C12.72 16.54 10.5 18.34 6 18.34H0.900002V0.820001H11.58V3.28H3.78V7.96H5.88C10.44 7.9 12.72 9.64 12.72 13.06ZM5.82 15.88C7.2 15.88 8.22 15.64 8.82 15.22C9.48 14.74 9.78 14.02 9.78 13.06C9.78 12.1 9.48 11.38 8.82 10.96C8.16 10.54 7.08 10.3 5.46 10.3H3.72V15.88H5.82Z" fill="black"/>
<path d="M28.38 13.06C28.38 14.8 27.78 16.06 26.64 16.96C25.5 17.86 23.82 18.28 21.66 18.28H16.2V0.820001H19.08V7.9H21.54C23.76 7.9 25.44 8.32 26.64 9.22C27.84 10.12 28.38 11.38 28.38 13.06ZM21.48 15.88C22.74 15.88 23.76 15.64 24.42 15.22C25.08 14.74 25.44 14.02 25.44 13.06C25.44 12.1 25.08 11.44 24.42 11.02C23.76 10.6 22.62 10.36 21.12 10.36H19.02V15.88H21.48Z" fill="black"/>
<path d="M54.06 9.52C54.06 12.4 53.4 14.56 52.02 16.18C50.64 17.74 48.78 18.52 46.26 18.52C43.92 18.52 42.06 17.8 40.68 16.42C39.36 14.98 38.58 13 38.46 10.42H34.68V18.28H31.8V0.82H34.68V7.96H38.52C38.76 5.56 39.54 3.7 40.86 2.44C42.18 1.18 43.98 0.52 46.26 0.52C48.72 0.52 50.64 1.3 51.96 2.86C53.4 4.48 54.06 6.7 54.06 9.52ZM41.52 9.52C41.52 11.68 41.94 13.3 42.72 14.44C43.5 15.52 44.7 16.12 46.32 16.12C47.94 16.12 49.14 15.58 49.92 14.44C50.7 13.3 51.12 11.68 51.12 9.52C51.12 7.36 50.7 5.74 49.92 4.6C49.14 3.46 47.94 2.92 46.38 2.92C44.76 2.92 43.56 3.46 42.78 4.6C41.94 5.74 41.52 7.36 41.52 9.52Z" fill="black"/>
<path d="M63.9 18.28H61.02V3.28H55.86V0.820001H69V3.28H63.84V18.28H63.9Z" fill="black"/>
<path d="M71.7 0.820001H74.34V9.88C74.34 10.84 74.34 11.8 74.28 12.76C74.22 13.72 74.22 14.38 74.16 14.74H74.28L83.22 0.820001H86.58V18.28H83.94V9.28C83.94 7.9 84 6.22 84.18 4.24H84.06L75.06 18.28H71.7V0.820001Z" fill="black"/>
<path d="M98.58 3.04C96.96 3.04 95.64 3.64 94.68 4.78C93.72 5.92 93.24 7.54 93.24 9.58C93.24 11.74 93.72 13.36 94.62 14.44C95.52 15.52 96.84 16.12 98.52 16.12C99.24 16.12 99.96 16.06 100.68 15.88C101.4 15.76 102.12 15.52 102.84 15.34V17.8C101.46 18.34 99.9 18.58 98.16 18.58C95.58 18.58 93.66 17.8 92.28 16.24C90.9 14.68 90.24 12.46 90.24 9.58C90.24 7.78 90.6 6.16 91.26 4.78C91.92 3.4 92.88 2.38 94.14 1.66C95.4 0.940001 96.9 0.580001 98.58 0.580001C100.38 0.580001 102 0.940001 103.56 1.72L102.54 4.12C101.94 3.82 101.34 3.58 100.68 3.4C99.96 3.1 99.3 3.04 98.58 3.04Z" fill="black"/>
<path d="M120.06 18.28H116.7L109.5 9.4V18.28H106.62V0.820001H109.5V9.28L116.58 0.820001H119.7L112.62 9.28L120.06 18.28Z" fill="black"/>
<path d="M137.88 9.52C137.88 12.34 137.16 14.56 135.72 16.18C134.28 17.74 132.3 18.52 129.66 18.52C127.02 18.52 124.98 17.74 123.6 16.18C122.16 14.62 121.5 12.4 121.5 9.52C121.5 6.64 122.22 4.42 123.66 2.86C125.1 1.3 127.14 0.52 129.78 0.52C132.36 0.52 134.4 1.3 135.78 2.86C137.16 4.42 137.88 6.7 137.88 9.52ZM124.56 9.52C124.56 11.68 124.98 13.3 125.88 14.44C126.72 15.58 128.04 16.12 129.72 16.12C131.4 16.12 132.72 15.58 133.56 14.44C134.4 13.36 134.88 11.68 134.88 9.52C134.88 7.36 134.46 5.74 133.62 4.66C132.78 3.58 131.46 2.98 129.78 2.98C128.04 2.98 126.78 3.52 125.88 4.66C124.98 5.74 124.56 7.36 124.56 9.52Z" fill="black"/>
<path d="M155.1 18.28H152.22V3.28H144.48V18.34H141.6V0.820001H155.04V18.28H155.1Z" fill="black"/>
</g>
</svg>
