<svg width="16" height="16" viewBox="0 0 16 16" fill="none" xmlns="http://www.w3.org/2000/svg">
<path d="M8 0C3.56364 0 0 3.56364 0 8C0 12.4364 3.56364 16 8 16C12.4364 16 16 12.4364 16 8C16 3.56364 12.4364 0 8 0ZM9.16364 8.14545L11.8909 10.8727C11.9636 10.9455 12 11.0545 12 11.1273C12 11.2 11.9636 11.3091 11.8909 11.3818L11.3818 11.8909C11.3091 11.9636 11.2 12 11.1273 12C11.0182 12 10.9455 11.9636 10.8727 11.8909L8.14545 9.16364C8.07273 9.09091 7.96364 9.09091 7.89091 9.16364L5.16364 11.8909C5.09091 11.9636 4.98182 12 4.90909 12C4.8 12 4.72727 11.9636 4.65455 11.8909L4.14545 11.3818C4.07273 11.3091 4.03636 11.2 4.03636 11.1273C4.03636 11.0545 4.07273 10.9455 4.14545 10.8727L6.87273 8.14545C6.94545 8.07273 6.94545 7.96364 6.87273 7.89091L4.14545 5.16364C4.07273 5.09091 4.03636 4.98182 4.03636 4.90909C4.03636 4.83636 4.07273 4.72727 4.14545 4.65455L4.65455 4.14545C4.72727 4.07273 4.83636 4.03636 4.90909 4.03636C4.98182 4.03636 5.09091 4.07273 5.16364 4.14545L7.89091 6.87273C7.96364 6.94545 8.07273 6.94545 8.14545 6.87273L10.8727 4.14545C10.9455 4.07273 11.0545 4.03636 11.1273 4.03636C11.2364 4.03636 11.3091 4.07273 11.3818 4.14545L11.8909 4.65455C11.9636 4.72727 12 4.83636 12 4.90909C12 4.98182 11.9636 5.09091 11.8909 5.16364L9.16364 7.89091C9.09091 7.92727 9.09091 8.07273 9.16364 8.14545Z" fill="black" fill-opacity="0.12"/>
</svg>
