<svg width="8" height="8" viewBox="0 0 8 8" fill="none" xmlns="http://www.w3.org/2000/svg">
<path d="M7.8828 0.117299C7.7264 -0.0390995 7.47361 -0.0390995 7.31721 0.117299L4.00005 3.43446L0.682892 0.117299C0.526494 -0.0390995 0.273697 -0.0390995 0.117299 0.117299C-0.0390995 0.273697 -0.0390995 0.526494 0.117299 0.682892L3.43446 4.00005L0.117299 7.31721C-0.0390995 7.47361 -0.0390995 7.7264 0.117299 7.8828C0.195298 7.9608 0.297697 8 0.400095 8C0.502494 8 0.604893 7.9608 0.682892 7.8828L4.00005 4.56564L7.31721 7.8828C7.39521 7.9608 7.49761 8 7.60001 8C7.7024 8 7.8048 7.9608 7.8828 7.8828C8.0392 7.7264 8.0392 7.47361 7.8828 7.31721L4.56564 4.00005L7.8828 0.682892C8.0392 0.526494 8.0392 0.273697 7.8828 0.117299Z" fill="white"/>
</svg>
