<svg width="20" height="20" viewBox="0 0 20 20" fill="none" xmlns="http://www.w3.org/2000/svg">
<path d="M0 8.75V0.625C0 0.605469 0 0.582031 0.00390625 0.5625C0.00390625 0.554688 0.0078125 0.542969 0.0078125 0.535156C0.0078125 0.523438 0.0117188 0.511719 0.0117188 0.503906C0.015625 0.492187 0.015625 0.484375 0.0195312 0.472656C0.0234375 0.464844 0.0234375 0.453125 0.0273438 0.445312C0.03125 0.433594 0.0351562 0.425781 0.0390625 0.414062C0.0429688 0.40625 0.046875 0.394531 0.0507812 0.386719C0.0546875 0.378906 0.0585938 0.367188 0.0625 0.359375C0.0664062 0.351562 0.0703125 0.339844 0.078125 0.332031C0.078125 0.320312 0.0820312 0.3125 0.0898438 0.304688C0.09375 0.296875 0.101562 0.285156 0.105469 0.277344C0.109375 0.269531 0.117188 0.261719 0.125 0.253906C0.132812 0.246094 0.136719 0.238281 0.144531 0.230469C0.15625 0.214844 0.167969 0.203125 0.183594 0.1875L0.1875 0.183594L0.191406 0.179688C0.203125 0.167969 0.21875 0.152344 0.234375 0.140625C0.242188 0.132812 0.25 0.128906 0.257812 0.125C0.261719 0.117188 0.269531 0.109375 0.277344 0.105469C0.285156 0.0976562 0.296875 0.09375 0.304688 0.0898438C0.3125 0.0820312 0.320312 0.078125 0.332031 0.0742188C0.339844 0.0703125 0.351562 0.0664062 0.359375 0.0585938C0.367188 0.0546875 0.378906 0.0507813 0.386719 0.046875C0.394531 0.0429688 0.40625 0.0390625 0.414062 0.0390625C0.425781 0.0351562 0.433594 0.03125 0.445312 0.0273438C0.453125 0.0234375 0.464844 0.0234375 0.472656 0.0195312C0.484375 0.015625 0.492187 0.015625 0.503906 0.0117188C0.515625 0.0078125 0.527344 0.0078125 0.535156 0.0078125C0.542969 0.0078125 0.554688 0.00390625 0.5625 0.00390625C0.582031 0 0.605469 0 0.625 0H8.75C9.09375 0 9.375 0.28125 9.375 0.625C9.375 0.96875 9.09375 1.25 8.75 1.25H2.13281L9.19141 8.30859C9.43359 8.55078 9.43359 8.94922 9.19141 9.19141C8.94922 9.43359 8.55078 9.43359 8.30859 9.19141L1.25 2.13281V8.75C1.25 9.09375 0.96875 9.375 0.625 9.375C0.28125 9.375 0 9.09375 0 8.75ZM10.8086 11.6914L17.8672 18.75H11.25C10.9062 18.75 10.625 19.0312 10.625 19.375C10.625 19.7188 10.9062 20 11.25 20H19.375C19.3789 20 19.3789 20 19.3828 20C19.4023 20 19.418 20 19.4375 19.9961C19.4492 19.9961 19.457 19.9922 19.4688 19.9922C19.4805 19.9922 19.4883 19.9883 19.5 19.9883C19.5117 19.9844 19.5234 19.9844 19.5312 19.9805C19.5391 19.9766 19.5508 19.9766 19.5586 19.9727C19.5703 19.9688 19.5781 19.9648 19.5898 19.9609C19.5977 19.957 19.6094 19.9531 19.6172 19.9531C19.625 19.9492 19.6367 19.9453 19.6445 19.9414C19.6523 19.9375 19.6641 19.9336 19.6719 19.9297C19.6797 19.9258 19.6914 19.918 19.6992 19.9141C19.707 19.9102 19.7148 19.9023 19.7266 19.8984C19.7383 19.8906 19.7461 19.8828 19.7539 19.8789C19.7617 19.875 19.7656 19.8711 19.7734 19.8633C19.8047 19.8359 19.8359 19.8086 19.8594 19.7773C19.8633 19.7695 19.8711 19.7617 19.875 19.7578C19.8828 19.75 19.8906 19.7383 19.8945 19.7305C19.8984 19.7227 19.9062 19.7109 19.9102 19.7031C19.9141 19.6953 19.9219 19.6875 19.9258 19.6758C19.9297 19.668 19.9336 19.6562 19.9375 19.6484C19.9414 19.6406 19.9453 19.6289 19.9492 19.6211C19.9531 19.6133 19.957 19.6016 19.9609 19.5938C19.9648 19.582 19.9688 19.5742 19.9727 19.5625C19.9766 19.5547 19.9766 19.543 19.9805 19.5352C19.9844 19.5234 19.9844 19.5156 19.9883 19.5039C19.9922 19.4922 19.9922 19.4805 19.9922 19.4688C19.9922 19.4609 19.9961 19.4531 19.9961 19.4414C20 19.4219 20 19.3984 20 19.3789V11.25C20 10.9062 19.7188 10.625 19.375 10.625C19.0312 10.625 18.75 10.9062 18.75 11.25V17.8672L11.6914 10.8086C11.5703 10.6875 11.4102 10.625 11.25 10.625C11.0898 10.625 10.9297 10.6875 10.8086 10.8086C10.5625 11.0508 10.5625 11.4492 10.8086 11.6914Z" fill="#7C107E"/>
</svg>
