<svg width="20" height="20" viewBox="0 0 20 20" fill="none" xmlns="http://www.w3.org/2000/svg">
<path d="M9.375 0.625V8.75C9.375 8.76953 9.375 8.79297 9.37109 8.8125C9.37109 8.82031 9.36719 8.83203 9.36719 8.83984C9.36719 8.85156 9.36328 8.86328 9.36328 8.87109C9.35938 8.88281 9.35938 8.89062 9.35547 8.90234C9.35156 8.91016 9.35156 8.92188 9.34766 8.92969C9.34375 8.94141 9.33984 8.94922 9.33594 8.96094C9.33203 8.96875 9.32812 8.98047 9.32422 8.98828C9.32031 8.99609 9.31641 9.00781 9.3125 9.01562C9.30859 9.02344 9.30469 9.03516 9.29688 9.04297C9.29297 9.05078 9.28906 9.05859 9.28125 9.06641C9.27734 9.07422 9.26953 9.08594 9.26562 9.09375C9.26172 9.10156 9.25391 9.10938 9.24609 9.11719C9.23828 9.125 9.23438 9.13281 9.22656 9.14062C9.21484 9.15625 9.20312 9.16797 9.1875 9.18359L9.18359 9.1875L9.17969 9.19141C9.16797 9.20312 9.15234 9.21875 9.13672 9.23047C9.12891 9.23828 9.12109 9.24219 9.11328 9.24609C9.10547 9.25391 9.09766 9.25781 9.08594 9.26562C9.07812 9.27344 9.06641 9.27734 9.05859 9.28125C9.05078 9.28516 9.04297 9.29297 9.03516 9.29688C9.02734 9.30078 9.01562 9.30469 9.00781 9.3125C9 9.31641 8.98828 9.32031 8.98047 9.32422C8.97266 9.32812 8.96094 9.33203 8.95312 9.33594C8.94141 9.33984 8.93359 9.34375 8.92188 9.34766C8.91406 9.35156 8.90234 9.35156 8.89453 9.35547C8.88281 9.35938 8.875 9.35938 8.86328 9.36328C8.85156 9.36719 8.83984 9.36719 8.83203 9.36719C8.82422 9.36719 8.8125 9.37109 8.80469 9.37109C8.78516 9.375 8.76172 9.375 8.74219 9.375H0.625C0.28125 9.375 0 9.09375 0 8.75C0 8.40625 0.28125 8.125 0.625 8.125H7.24219L0.183594 1.06641C-0.0585938 0.824219 -0.0585938 0.425781 0.183594 0.183594C0.425781 -0.0585938 0.824219 -0.0585938 1.06641 0.183594L8.125 7.24219V0.625C8.125 0.28125 8.40625 0 8.75 0C9.09375 0 9.375 0.28125 9.375 0.625ZM19.8164 18.9336L12.7578 11.875H19.375C19.7188 11.875 20 11.5938 20 11.25C20 10.9062 19.7188 10.625 19.375 10.625H11.25C11.2461 10.625 11.2461 10.625 11.2422 10.625C11.2227 10.625 11.207 10.625 11.1875 10.6289C11.1758 10.6289 11.168 10.6328 11.1562 10.6328C11.1445 10.6328 11.1367 10.6367 11.125 10.6367C11.1133 10.6406 11.1016 10.6406 11.0938 10.6445C11.0859 10.6484 11.0742 10.6484 11.0664 10.6523C11.0547 10.6563 11.0469 10.6602 11.0352 10.6641C11.0273 10.668 11.0156 10.6719 11.0078 10.6719C11 10.6758 10.9883 10.6797 10.9805 10.6836C10.9727 10.6875 10.9609 10.6914 10.9531 10.6953C10.9453 10.6992 10.9336 10.707 10.9258 10.7109C10.918 10.7148 10.9102 10.7227 10.8984 10.7266C10.8867 10.7344 10.8789 10.7422 10.8711 10.7461C10.8633 10.75 10.8594 10.7539 10.8516 10.7617C10.8203 10.7891 10.7891 10.8164 10.7656 10.8477C10.7617 10.8555 10.7539 10.8633 10.75 10.8672C10.7422 10.875 10.7344 10.8867 10.7305 10.8945C10.7266 10.9023 10.7188 10.9141 10.7148 10.9219C10.7109 10.9297 10.7031 10.9375 10.6992 10.9492C10.6953 10.957 10.6914 10.9688 10.6875 10.9766C10.6836 10.9844 10.6797 10.9961 10.6758 11.0039C10.6719 11.0117 10.668 11.0234 10.6641 11.0312C10.6602 11.043 10.6563 11.0508 10.6523 11.0625C10.6484 11.0703 10.6484 11.082 10.6445 11.0898C10.6406 11.1016 10.6406 11.1094 10.6367 11.1211C10.6328 11.1328 10.6328 11.1445 10.6328 11.1562C10.6328 11.1641 10.6289 11.1719 10.6289 11.1836C10.625 11.2031 10.625 11.2266 10.625 11.2461V19.3711C10.625 19.7148 10.9062 19.9961 11.25 19.9961C11.5938 19.9961 11.875 19.7148 11.875 19.3711V12.7578L18.9336 19.8164C19.0547 19.9375 19.2148 20 19.375 20C19.5352 20 19.6953 19.9375 19.8164 19.8164C20.0625 19.5742 20.0625 19.1758 19.8164 18.9336Z" fill="#7C107E"/>
</svg>
