<svg width="16" height="16" viewBox="0 0 16 16" fill="none" xmlns="http://www.w3.org/2000/svg">
<g clip-path="url(#clip0)">
<path d="M7.33315 15.3229C3.28994 15.3229 0 12.0331 0 7.98988C0 3.94666 3.28994 0.656723 7.33315 0.656723C8.73911 0.656723 10.107 1.05735 11.289 1.81599C11.521 1.9654 11.589 2.27472 11.4396 2.50738C11.2897 2.74003 10.981 2.80729 10.7483 2.65801C9.72833 2.00263 8.5471 1.65669 7.33315 1.65669C3.84119 1.65669 0.999969 4.49792 0.999969 7.98988C0.999969 11.4817 3.84119 14.3229 7.33315 14.3229C10.825 14.3229 13.6662 11.4817 13.6662 7.98988C13.6662 7.78114 13.6562 7.57449 13.6369 7.37124C13.6103 7.09586 13.8116 6.85185 14.0862 6.82524C14.3622 6.79985 14.6055 6.99992 14.6322 7.27457C14.6548 7.50991 14.6662 7.74855 14.6662 7.98988C14.6662 12.0331 11.3764 15.3229 7.33315 15.3229Z" fill="#7C107E"/>
<path d="M8.16561 9.65642C8.03769 9.65642 7.90964 9.60772 7.81235 9.50982L4.81243 6.50992C4.61713 6.31449 4.61713 5.99785 4.81243 5.80255C5.00774 5.60724 5.32438 5.60724 5.51969 5.80255L8.16635 8.44919L15.1454 1.47005C15.3408 1.27474 15.6575 1.27474 15.8528 1.47005C16.0481 1.66536 16.0481 1.982 15.8528 2.1773L8.51961 9.51043C8.42159 9.60772 8.29366 9.65642 8.16561 9.65642Z" fill="#7C107E"/>
</g>
<defs>
<clipPath id="clip0">
<rect width="16" height="16" fill="white"/>
</clipPath>
</defs>
</svg>
