<?xml version="1.0" encoding="utf-8"?>
<!-- Generator: Adobe Illustrator 21.0.0, SVG Export Plug-In . SVG Version: 6.00 Build 0)  -->
<svg version="1.1" id="Слой_1" xmlns="http://www.w3.org/2000/svg" xmlns:xlink="http://www.w3.org/1999/xlink" x="0px" y="0px"
	 viewBox="0 0 512 512" style="enable-background:new 0 0 512 512;" xml:space="preserve">
<path d="M204.5,459.6v51.9L192,501.3c-1.9-1.6-48-39-94.8-92.7C32.7,334.6,0,268.2,0,211.2v-5.7C0,92.7,91.7,1,204.5,1
	S409,92.7,409,205.5v5.7c0,4.8-0.3,9.7-0.7,14.6l-40-36.5c-8.2-83.2-78.5-148.3-163.8-148.3c-90.8,0-164.6,73.8-164.6,164.6v5.7
	C39.9,307.5,164.1,424.2,204.5,459.6z M204.5,120.7c-46.8,0-84.8,38-84.8,84.8s38,84.8,84.8,84.8s84.8-38,84.8-84.8
	S251.2,120.7,204.5,120.7z M204.5,250.4c-24.8,0-44.9-20.1-44.9-44.9s20.1-44.9,44.9-44.9s44.9,20.1,44.9,44.9
	S229.2,250.4,204.5,250.4z M356.6,232.6L201.2,374.4l26.9,29.5l11.2-10.2v64.1c0,29.8,24.3,54.1,54.1,54.1h126.3
	c29.8,0,54.1-24.3,54.1-54.1v-64.1l11.2,10.2l26.9-29.5L356.6,232.6z M387,431h-59.8v-59.9H387V431z"/>
</svg>
