<svg width="12" height="12" viewBox="0 0 12 12" fill="none" xmlns="http://www.w3.org/2000/svg">
<path d="M2.57778 11.4213C2.59133 11.7447 2.85748 12 3.18116 12H8.81892C9.1426 12 9.40876 11.7447 9.4223 11.4213L9.82491 2.92206H2.17517L2.57778 11.4213ZM7.27537 5.03311C7.27537 4.89768 7.38518 4.78784 7.52067 4.78784H7.913C8.04839 4.78784 8.15829 4.89765 8.15829 5.03311V9.88891C8.15829 10.0244 8.04848 10.1342 7.913 10.1342H7.52067C7.38524 10.1342 7.27537 10.0244 7.27537 9.88891V5.03311ZM5.55861 5.03311C5.55861 4.89768 5.66842 4.78784 5.80388 4.78784H6.19621C6.3316 4.78784 6.44147 4.89765 6.44147 5.03311V9.88891C6.44147 10.0244 6.33169 10.1342 6.19621 10.1342H5.80388C5.66845 10.1342 5.55861 10.0244 5.55861 9.88891V5.03311ZM3.84179 5.03311C3.84179 4.89768 3.9516 4.78784 4.08705 4.78784H4.47941C4.61484 4.78784 4.72468 4.89765 4.72468 5.03311V9.88891C4.72468 10.0244 4.61487 10.1342 4.47941 10.1342H4.08705C3.95163 10.1342 3.84179 10.0244 3.84179 9.88891V5.03311Z" fill="#7C107E"/>
<path d="M10.0933 0.61818H7.49244V0.126468C7.49244 0.0566388 7.43583 0 7.36597 0H4.63476C4.56494 0 4.50833 0.0566388 4.50833 0.126468V0.618151H1.90741C1.69809 0.618151 1.52844 0.787832 1.52844 0.997143V2.1877H10.4723V0.997172C10.4723 0.787861 10.3026 0.61818 10.0933 0.61818Z" fill="#7C107E"/>
</svg>
