<svg width="16" height="16" viewBox="0 0 16 16" fill="none" xmlns="http://www.w3.org/2000/svg">
<path d="M6.39062 14.3625V15.9844L6 15.6656C5.94063 15.6156 4.5 14.4469 3.0375 12.7688C1.02187 10.4563 0 8.38125 0 6.6V6.42188C0 2.89687 2.86562 0.03125 6.39062 0.03125C9.91562 0.03125 12.7812 2.89687 12.7812 6.42188V6.6C12.7812 6.75 12.7719 6.90313 12.7594 7.05625L11.5094 5.91563C11.2531 3.31563 9.05625 1.28125 6.39062 1.28125C3.55312 1.28125 1.24688 3.5875 1.24688 6.425V6.60313C1.24688 9.60938 5.12813 13.2563 6.39062 14.3625ZM6.39062 3.77187C4.92812 3.77187 3.74062 4.95937 3.74062 6.42188C3.74062 7.88438 4.92812 9.07187 6.39062 9.07187C7.85313 9.07187 9.04062 7.88438 9.04062 6.42188C9.04062 4.95937 7.85 3.77187 6.39062 3.77187ZM11.1438 7.26875L6.2875 11.7L7.12813 12.6219L7.47813 12.3031V14.3062C7.47813 15.2375 8.2375 15.9969 9.16875 15.9969H13.1156C14.0469 15.9969 14.8062 15.2375 14.8062 14.3062V12.3031L15.1562 12.6219L15.9969 11.7L11.1438 7.26875ZM12.0938 13.4688H10.225V11.5969H12.0938V13.4688Z" fill="#7C107E"/>
</svg>
