<svg width="24" height="24" viewBox="0 0 24 24" fill="none" xmlns="http://www.w3.org/2000/svg">
<path d="M1.02857 5.31426H22.9714C23.5371 5.31426 24 4.8514 24 4.28569C24 3.71997 23.5371 3.25712 22.9714 3.25712H1.02857C0.462857 3.25712 0 3.71997 0 4.28569C0 4.8514 0.462857 5.31426 1.02857 5.31426Z" fill="#7C107E"/>
<path d="M1.02857 13.0285H22.9714C23.5371 13.0285 24 12.5657 24 12C24 11.4343 23.5371 10.9714 22.9714 10.9714H1.02857C0.462857 10.9714 0 11.4343 0 12C0 12.5657 0.462857 13.0285 1.02857 13.0285Z" fill="#7C107E"/>
<path d="M1.02857 20.7428H22.9714C23.5371 20.7428 24 20.28 24 19.7142C24 19.1485 23.5371 18.6857 22.9714 18.6857H1.02857C0.462857 18.6857 0 19.1485 0 19.7142C0 20.28 0.462857 20.7428 1.02857 20.7428Z" fill="#7C107E"/>
</svg>
