<svg width="12" height="12" viewBox="0 0 12 12" fill="none" xmlns="http://www.w3.org/2000/svg">
<path d="M12 6C12 5.75832 11.8047 5.563 11.563 5.563L6.437 5.563L6.43701 0.437005C6.43701 0.195323 6.24168 0 6 0C5.75832 0 5.563 0.195323 5.563 0.437005L5.563 5.563L0.437005 5.563C0.195323 5.563 0 5.75832 0 6C0 6.12053 0.0488312 6.22994 0.127949 6.30906C0.207068 6.38817 0.316473 6.43701 0.437005 6.43701L5.563 6.437L5.563 11.563C5.563 11.6835 5.61183 11.7929 5.69095 11.8721C5.77006 11.9512 5.87947 12 6 12C6.24168 12 6.43701 11.8047 6.43701 11.563L6.437 6.437L11.563 6.43701C11.8047 6.43701 12 6.24168 12 6Z" fill="black"/>
</svg>
