<svg width="16" height="16" viewBox="0 0 16 16" fill="none" xmlns="http://www.w3.org/2000/svg">
<circle opacity="0.2" cx="8" cy="8" r="8" fill="white"/>
<path d="M6.61719 10.1582V9.72461C6.61719 9.34961 6.69727 9.02344 6.85742 8.74609C7.01758 8.46875 7.31055 8.17383 7.73633 7.86133C8.14648 7.56836 8.41602 7.33008 8.54492 7.14648C8.67773 6.96289 8.74414 6.75781 8.74414 6.53125C8.74414 6.27734 8.65039 6.08398 8.46289 5.95117C8.27539 5.81836 8.01367 5.75195 7.67773 5.75195C7.0918 5.75195 6.42383 5.94336 5.67383 6.32617L5.03516 5.04297C5.90625 4.55469 6.83008 4.31055 7.80664 4.31055C8.61133 4.31055 9.25 4.50391 9.72266 4.89062C10.1992 5.27734 10.4375 5.79297 10.4375 6.4375C10.4375 6.86719 10.3398 7.23828 10.1445 7.55078C9.94922 7.86328 9.57812 8.21484 9.03125 8.60547C8.65625 8.88281 8.41797 9.09375 8.31641 9.23828C8.21875 9.38281 8.16992 9.57227 8.16992 9.80664V10.1582H6.61719ZM6.42969 12.1621C6.42969 11.834 6.51758 11.5859 6.69336 11.418C6.86914 11.25 7.125 11.166 7.46094 11.166C7.78516 11.166 8.03516 11.252 8.21094 11.4238C8.39062 11.5957 8.48047 11.8418 8.48047 12.1621C8.48047 12.4707 8.39062 12.7148 8.21094 12.8945C8.03125 13.0703 7.78125 13.1582 7.46094 13.1582C7.13281 13.1582 6.87891 13.0723 6.69922 12.9004C6.51953 12.7246 6.42969 12.4785 6.42969 12.1621Z" fill="white"/>
</svg>
