<?xml version="1.0" encoding="utf-8"?>
<!-- Generator: Adobe Illustrator 21.0.0, SVG Export Plug-In . SVG Version: 6.00 Build 0)  -->
<svg version="1.1" id="Слой_1" xmlns="http://www.w3.org/2000/svg" xmlns:xlink="http://www.w3.org/1999/xlink" x="0px" y="0px"
	 viewBox="0 0 481 481" style="enable-background:new 0 0 481 481;" xml:space="preserve">
<path d="M61.7,352.3c0.8,0.8,1.8,1.4,2.8,1.8V473c0,4.4,3.6,8,8,8h367.3c4.4,0,8-3.6,8-8V281.4c0-4.4-3.6-8-8-8h-40
	c8.1-10.6,16-23.3,16-31.9c0-13.3-8.2-25.2-20.7-29.9c-12.4-4.7-26.5-1.2-35.2,8.8c-8.8-10-22.8-13.4-35.2-8.8
	c-12.4,4.7-20.6,16.6-20.7,29.9c0,8.6,7.9,21.4,16,31.9H151.9l34-34l56.5-56.5L355.3,70c3.1-3.1,3.1-8.2,0-11.3L298.8,2.2
	c-3.2-3-8.1-3-11.3,0l-74.4,74.4C187,56.2,156,43.5,140.7,58.7c-10,10-7.9,26.9,0.5,44.7l-34.9,34.9c-17.8-8.4-34.7-10.5-44.7-0.5
	c-15.2,15.2-2.5,46.3,18,72.4L5.2,284.6c-3.1,3.1-3.1,8.2,0,11.3L61.7,352.3z M320,241.4c0-8.8,7.2-16,16-16c8.8,0,16,7.2,16,16v2.2
	c0,4.4,3.6,8,8,8c4.4,0,8-3.6,8-8v-2.2c0-8.8,7.2-16,16-16c8.8,0,16,7.2,16,16c-4.6,12-11.7,22.9-20.8,31.9h-38.2
	C331.7,264.3,324.6,253.4,320,241.4z M296.1,289.3h135.8V465H296.1V289.3z M232.2,289.3h47.9V465h-47.9V289.3z M216.2,289.3V465
	H80.5V345.2H80l56.3-56.3v0.4H216.2z M180.3,222.5l-45.2-45.2l45.2-45.2l45.2,45.2L180.3,222.5z M293.2,19.2l45.2,45.2L236.7,166
	l-45.2-45.1L293.2,19.2z M152,70c1.9-1.5,4.3-2.3,6.8-2.1c8.9,0,24.4,5.8,43,20.1l-27.1,27.1l-4.6,4.6C150.7,94.7,146.9,75.1,152,70
	z M149.3,117.9c2.9,4.5,6,8.9,9.4,13.2l-24.6,24.6c-4.3-3.4-8.7-6.5-13.2-9.4L149.3,117.9z M73,149.1c1.9-1.5,4.3-2.3,6.8-2.1
	c8.9,0,24.5,5.8,43,20.1l-4.6,4.6L91,198.8C71.7,173.8,67.9,154.2,73,149.1z M123.8,188.6l45.2,45.2L67.3,335.4l-45.1-45.2
	L123.8,188.6z"/>
<path d="M423.9,108.5c-8.8-10-22.8-13.4-35.2-8.8c-12.4,4.7-20.6,16.6-20.7,29.9c0,17.3,37.7,63.9,55.9,63.9s55.9-46.5,55.9-63.9
	c0-13.3-8.2-25.2-20.7-29.9C446.7,95.1,432.6,98.6,423.9,108.5z M463.8,129.6c-0.2,10-30.9,46.7-39.8,47.9
	c-9.2-1.2-39.9-37.9-40.1-47.9c0-8.8,7.2-16,16-16c8.8,0,16,7.2,16,16v2.2c0,4.4,3.6,8,8,8s8-3.6,8-8v-2.2c0-8.8,7.2-16,16-16
	C456.6,113.7,463.8,120.8,463.8,129.6z"/>
</svg>
