<svg width="64" height="32" viewBox="0 0 64 32" fill="none" xmlns="http://www.w3.org/2000/svg">
<rect width="64" height="32" rx="16" fill="#436EAB"/>
<path d="M41.509 21.2825H38.5869C37.8564 21.3637 37.207 21.039 36.72 20.552C36.3142 20.1461 35.9895 19.7403 35.5836 19.2533C35.4213 19.0909 35.259 18.9286 35.0155 18.7663C34.6096 18.5227 34.2849 18.6039 34.0414 19.0098C33.7979 19.4156 33.7979 19.9026 33.7167 20.3896C33.7167 21.039 33.4732 21.2825 32.7427 21.2825C31.2817 21.3637 29.9018 21.1202 28.6031 20.3896C27.4667 19.7403 26.5739 18.7663 25.7622 17.7922C24.3011 15.763 23.0836 13.4903 22.1096 11.2175C21.8661 10.7305 22.0284 10.4058 22.5966 10.4058C23.5706 10.4058 24.4635 10.4058 25.4375 10.4058C25.8433 10.4058 26.0868 10.6494 26.2492 10.974C26.7362 12.2727 27.3856 13.4091 28.1973 14.5455C28.3596 14.789 28.6031 15.1136 28.9278 15.3572C29.2525 15.6007 29.496 15.5195 29.6583 15.1136C29.7395 14.8701 29.8206 14.6266 29.8206 14.3831C29.9018 13.4903 29.9018 12.5974 29.7395 11.7857C29.6583 11.2175 29.3336 10.8929 28.7654 10.8117C28.5219 10.7305 28.5219 10.6494 28.6843 10.487C28.9278 10.2435 29.1713 10 29.5771 10H32.8239C33.3109 10.0812 33.4732 10.3247 33.5544 10.8117V14.4643C33.5544 14.6266 33.6356 15.276 34.0414 15.4383C34.2849 15.5195 34.5284 15.276 34.6908 15.1136C35.5025 14.302 36.0706 13.2468 36.5577 12.2727C36.8012 11.7857 36.9635 11.3799 37.1259 10.8929C37.2882 10.5682 37.5317 10.4058 37.8564 10.4058H41.022C41.1031 10.4058 41.1843 10.4058 41.2655 10.4058C41.8336 10.487 41.9148 10.7305 41.7525 11.2175C41.509 12.0292 41.0219 12.6786 40.4538 13.4091C39.8856 14.1396 39.3174 14.8701 38.8304 15.6007C38.4245 16.25 38.4245 16.6559 38.9927 17.224C39.6421 17.8734 40.3726 18.4416 40.9408 19.1721C41.1843 19.4968 41.4278 19.8215 41.6713 20.2273C42.2395 20.6331 41.996 21.2825 41.509 21.2825Z" fill="white"/>
</svg>
