<svg width="20" height="20" viewBox="0 0 20 20" fill="none" xmlns="http://www.w3.org/2000/svg">
<path d="M12.3629 12.9375C11.941 12.3515 11.7769 11.8476 11.7418 11.332V9.36324C11.7418 7.82809 9.39805 7.82809 9.39805 9.37496V12.3046C9.39805 12.6328 9.14028 12.8906 8.81211 12.8906C8.48395 12.8906 8.22617 12.6328 8.22617 12.3046V9.60934C8.22617 9.45699 8.26137 9.30465 8.30821 9.16402L9.19047 7.03121C8.97567 7.03184 8.67133 7.06199 8.23703 7.07027C7.80078 7.07027 7.3991 6.90613 7.0502 6.7025L6.17535 8.88281C5.97617 9.37496 5.88239 9.89062 5.88239 10.4062V13.8164C5.88239 14.4609 6.03473 15.1055 6.3277 15.6679C6.81985 16.6289 7.05426 17.7851 7.05426 18.8633V19.4141C7.05426 19.7422 7.31203 20 7.6402 20H11.1558C11.484 20 11.7418 19.7422 11.7418 19.4141V17.2266C11.7418 17.0507 11.8004 16.9101 11.8941 16.8281C12.5504 16.2773 12.9136 15.4921 12.9136 14.6484C12.9137 14.0273 12.7262 13.4414 12.3629 12.9375Z" fill="white"/>
<path d="M18.1871 1.17188H17.6364C16.5582 1.17188 15.4801 0.9375 14.5191 0.445312C13.9567 0.152344 13.3122 0 12.6676 0H9.25746C8.74184 0 8.22621 0.0937891 7.73403 0.292969L2.03864 2.57812C0.597269 3.15234 1.26524 5.20312 2.56598 4.66402L8.01528 2.42578C8.1559 2.37895 8.30824 2.34375 8.46059 2.34375H11.1559C11.4841 2.34375 11.7418 2.60152 11.7418 2.92969C11.7418 3.25785 11.4841 3.51562 11.1559 3.51562H8.22621C7.58168 3.51562 7.05434 4.04297 7.05434 4.6875C7.05434 5.36723 7.6168 5.85938 8.21449 5.85938H10.1832C10.6989 5.89449 11.2028 6.05859 11.7887 6.48051C12.2926 6.84379 12.8786 7.03125 13.4997 7.03125C14.3434 7.03125 15.1286 6.66797 15.6794 6.01172C15.7614 5.91793 15.902 5.85938 16.0779 5.85938H18.1872C18.5154 5.85938 18.7732 5.6016 18.7732 5.27344V1.75781C18.773 1.42965 18.5153 1.17188 18.1871 1.17188Z" fill="white"/>
</svg>
