<svg width="20" height="20" viewBox="0 0 20 20" fill="none" xmlns="http://www.w3.org/2000/svg">
<path d="M13.4922 11.0156C13.3164 9.61719 12.2109 8.48438 10.7812 8.30859V6.48438H12.3438C12.5586 6.48438 12.7344 6.30859 12.7344 6.09375V2.34375C12.7344 1.04688 11.6875 0 10.3906 0C9.09766 0 8.04688 1.05078 8.04688 2.34375V6.09375C8.04688 6.30859 8.22266 6.48438 8.4375 6.48438H10V8.30859C8.59766 8.48438 7.46875 9.60156 7.28906 11.0156C5.99219 12.1406 5.73828 13.3398 5.70312 15.3828C5.70312 15.3867 5.70312 19.6094 5.70312 19.6094C5.70312 19.8242 5.87891 20 6.09375 20H14.6875C14.9023 20 15.0781 19.8242 15.0781 19.6094V15.2266C15.0312 13.3164 14.7656 12.1211 13.4922 11.0156ZM8.82812 5.70312V2.34375C8.82812 1.48047 9.52734 0.78125 10.3906 0.78125C11.2539 0.78125 11.9531 1.48047 11.9531 2.34375V5.70312H8.82812ZM12.7344 15.3125C12.7344 15.3359 12.7344 15.3594 12.7344 15.3828C12.7344 15.4023 12.7344 15.4219 12.7305 15.4414C12.7305 15.457 12.7305 15.4766 12.7266 15.4922C12.7266 15.5117 12.7227 15.5312 12.7227 15.5508V15.5547C12.7227 15.5742 12.7188 15.5938 12.7148 15.6133C12.7109 15.6289 12.7109 15.6445 12.707 15.6562C12.7031 15.6875 12.6992 15.7148 12.6914 15.7422C12.6875 15.7578 12.6875 15.7695 12.6836 15.7852C12.6797 15.8047 12.6758 15.8242 12.6719 15.8438C12.668 15.8633 12.6641 15.8828 12.6562 15.9023C12.6445 15.957 12.625 16.0117 12.6094 16.0664C12.6016 16.0859 12.5977 16.1055 12.5898 16.125C12.582 16.1445 12.5781 16.1602 12.5703 16.1797C12.5625 16.1992 12.5547 16.2148 12.5469 16.2344C12.5313 16.2734 12.5117 16.3125 12.4922 16.3516C12.4844 16.3633 12.4805 16.375 12.4727 16.3906C12.4687 16.3945 12.4688 16.3984 12.4648 16.4062C12.3438 16.6406 12.1836 16.8516 11.9922 17.0312C11.9648 17.0586 11.9375 17.082 11.9102 17.1055C11.8945 17.1172 11.8828 17.1289 11.8672 17.1406C11.8437 17.1602 11.8203 17.1797 11.793 17.1992C11.7305 17.2461 11.668 17.2891 11.5977 17.332C11.582 17.3398 11.5664 17.3516 11.5508 17.3594C11.5195 17.3789 11.4883 17.3945 11.4531 17.4102C11.4336 17.418 11.418 17.4297 11.4023 17.4375C11.3711 17.4531 11.3398 17.4688 11.3047 17.4805C11.3008 17.4805 11.2969 17.4844 11.293 17.4844C11.2422 17.5039 11.1914 17.5234 11.1406 17.543C11.1367 17.543 11.1328 17.543 11.1289 17.5469C11.1133 17.5508 11.0977 17.5586 11.082 17.5625C11.0664 17.5664 11.0469 17.5742 11.0312 17.5781C11.0273 17.5781 11.0234 17.582 11.0195 17.582C11.0039 17.5859 10.9883 17.5898 10.9727 17.5938C10.9531 17.5977 10.9336 17.6016 10.9141 17.6094C10.8945 17.6133 10.875 17.6172 10.8555 17.6211C10.8359 17.625 10.8164 17.6289 10.7969 17.6328C10.7812 17.6367 10.7656 17.6406 10.7461 17.6406C10.7422 17.6406 10.7383 17.6406 10.7305 17.6445C10.7188 17.6445 10.7109 17.6484 10.6992 17.6484C10.6875 17.6484 10.6758 17.6523 10.6641 17.6523C10.6484 17.6523 10.6328 17.6562 10.6211 17.6562C10.6094 17.6562 10.5938 17.6602 10.582 17.6602C10.5156 17.6641 10.4531 17.668 10.3867 17.668C10.3203 17.668 10.2539 17.6641 10.1914 17.6602C10.1797 17.6602 10.1641 17.6562 10.1523 17.6562C10.1367 17.6562 10.1211 17.6523 10.1094 17.6523C10.0977 17.6523 10.0859 17.6484 10.0742 17.6484C10.0625 17.6484 10.0508 17.6445 10.043 17.6445C10.0391 17.6445 10.0352 17.6445 10.0273 17.6406C10.0117 17.6367 9.99219 17.6367 9.97656 17.6328C9.95703 17.6289 9.9375 17.625 9.91797 17.6211C9.89844 17.6172 9.87891 17.6133 9.85938 17.6094C9.83984 17.6055 9.82031 17.6016 9.80078 17.5938C9.78516 17.5898 9.76953 17.5859 9.75391 17.582C9.75 17.582 9.74609 17.5781 9.74219 17.5781C9.72656 17.5742 9.70703 17.5703 9.69141 17.5625C9.67578 17.5586 9.66016 17.5547 9.64453 17.5469C9.64062 17.5469 9.63672 17.543 9.63281 17.543C9.58203 17.5234 9.53125 17.5039 9.48047 17.4844C9.47656 17.4844 9.47266 17.4805 9.46875 17.4805C9.4375 17.4648 9.40234 17.4531 9.37109 17.4375C9.35156 17.4297 9.33594 17.418 9.32031 17.4102C9.28906 17.3945 9.25391 17.375 9.22266 17.3594C9.20703 17.3516 9.19141 17.3398 9.17578 17.332C9.10937 17.293 9.04297 17.2461 8.98047 17.1992C8.95703 17.1797 8.92969 17.1602 8.90625 17.1406C8.89062 17.1289 8.87891 17.1172 8.86328 17.1055C8.84766 17.0938 8.83594 17.082 8.82031 17.0664C8.80859 17.0547 8.79297 17.043 8.78125 17.0273C8.58984 16.8477 8.42969 16.6367 8.30859 16.4023C8.30469 16.3984 8.30469 16.3945 8.30078 16.3867C8.29297 16.375 8.28906 16.3594 8.28125 16.3477C8.26172 16.3086 8.24609 16.2695 8.22656 16.2305C8.21875 16.2109 8.21094 16.1953 8.20312 16.1758C8.19531 16.1562 8.1875 16.1406 8.18359 16.1211C8.17578 16.1016 8.16797 16.082 8.16406 16.0625C8.14453 16.0078 8.12891 15.9531 8.11719 15.8984C8.11328 15.8789 8.10937 15.8594 8.10156 15.8398C8.09766 15.8203 8.09375 15.8008 8.08984 15.7812C8.08594 15.7656 8.08594 15.7539 8.08203 15.7383C8.07812 15.7109 8.07031 15.6797 8.06641 15.6523C8.06641 15.6367 8.0625 15.6211 8.05859 15.6094C8.05469 15.5898 8.05469 15.5703 8.05078 15.5508V15.5469C8.05078 15.5273 8.04688 15.5078 8.04688 15.4883C8.04688 15.4727 8.04297 15.4531 8.04297 15.4375C8.04297 15.418 8.03906 15.3984 8.03906 15.3789C8.03906 15.3555 8.03906 15.332 8.03906 15.3086V11.4062C8.03906 10.2383 8.89844 9.28125 9.99219 9.09766V11.707L8.86328 13.9688C8.76562 14.1602 8.84375 14.3945 9.03906 14.4922C9.23047 14.5898 9.46484 14.5117 9.5625 14.3164L10.3828 12.6719L11.207 14.3164C11.3047 14.5117 11.5391 14.5859 11.7305 14.4922C11.9219 14.3945 12 14.1602 11.9062 13.9688L10.7734 11.707V9.09766C11.9023 9.28516 12.7266 10.2695 12.7266 11.4102V15.3125H12.7344Z" fill="white"/>
<path d="M11.9531 2.34375V5.70312H8.82812V2.34375C8.82812 1.48047 9.52734 0.78125 10.3906 0.78125C11.2539 0.78125 11.9531 1.48047 11.9531 2.34375Z" fill="white"/>
</svg>
