<svg width="16" height="16" viewBox="0 0 16 16" fill="none" xmlns="http://www.w3.org/2000/svg">
<g clip-path="url(#clip0)">
<path d="M15.5418 5.95314C15.4206 5.83195 15.2247 5.83195 15.1035 5.95314L6.64338 14.4133C6.01974 15.0369 5.18748 15.3801 4.29913 15.3801C3.41046 15.3801 2.5779 15.0369 1.95457 14.4133C1.33123 13.7896 0.98779 12.9574 0.98779 12.0687C0.98779 11.1804 1.33092 10.3478 1.95457 9.72447L10.4144 1.26402C11.3124 0.366364 12.7221 0.421227 13.6935 1.39203C14.6646 2.36315 14.7198 3.77317 13.8218 4.67114L5.87436 12.6189C5.43019 13.0631 4.70673 13.0634 4.26162 12.6189C3.81714 12.1741 3.81714 11.4507 4.26162 11.0062L9.64538 5.62241C9.76657 5.50122 9.76657 5.30532 9.64538 5.18413C9.52418 5.06293 9.32829 5.06293 9.20709 5.18413L3.82334 10.5676C3.13708 11.2538 3.13708 12.3703 3.82334 13.0569C4.51021 13.7438 5.62701 13.7425 6.31265 13.0569L14.2604 5.10911C15.4082 3.96101 15.353 2.17438 14.1321 0.953434C12.9115 -0.267202 11.1245 -0.322685 9.97642 0.82542L1.51597 9.28587C0.775155 10.0264 0.367554 11.0145 0.367554 12.0687C0.367554 13.1229 0.775155 14.1114 1.51597 14.8519C2.25647 15.5927 3.24463 16.0003 4.29913 16.0003C5.353 16.0003 6.34148 15.5927 7.08198 14.8519L15.5418 6.39143C15.663 6.27024 15.663 6.07403 15.5418 5.95314Z" fill="#7C107E"/>
</g>
<defs>
<clipPath id="clip0">
<rect width="16" height="16" fill="white"/>
</clipPath>
</defs>
</svg>
