<svg width="24" height="24" viewBox="0 0 24 24" fill="none" xmlns="http://www.w3.org/2000/svg">
<path d="M17.4 8.52C17.16 7.68 16.08 6.48 15.12 6.36C13.08 6 10.92 6 8.88 6.36C7.92 6.6 6.84 7.68 6.6 8.52C6.24 10.2 6.24 12 6.6 13.68C6.72 14.16 7.08 14.64 7.44 15C7.92 15.36 8.4 15.72 8.88 15.84C8.88 15.84 9 15.84 9 15.96V18.48C9 18.6 9.12 18.72 9.24 18.6L10.44 17.4C10.44 17.4 11.4 16.44 11.52 16.2C12.72 16.2 13.92 16.2 15.12 15.96C16.08 15.72 17.16 14.64 17.4 13.8C17.76 12 17.76 10.2 17.4 8.52ZM15.12 13.8C14.88 14.16 14.64 14.52 14.28 14.76C14.16 14.76 14.04 14.88 13.92 14.88C13.92 14.88 13.8 14.88 13.92 14.88C13.8 14.88 13.68 14.76 13.56 14.76C12.24 14.28 11.04 13.56 10.2 12.48C9.72 11.88 9.24 11.16 8.88 10.44C8.76 10.08 8.52 9.72 8.4 9.36C8.28 9 8.4 8.76 8.64 8.52C8.88 8.28 9.12 8.16 9.36 8.04C9.6 7.92 9.72 8.04 9.96 8.16C10.32 8.52 10.56 8.88 10.8 9.36C10.92 9.6 10.92 9.96 10.68 10.2C10.68 10.2 10.56 10.32 10.44 10.32L10.32 10.44C10.2 10.56 10.2 10.68 10.32 10.8C10.68 11.76 11.28 12.48 12.12 12.84C12.24 12.84 12.36 12.96 12.6 12.96C12.84 12.96 12.96 12.6 13.2 12.48C13.44 12.36 13.68 12.36 13.92 12.48C14.16 12.6 14.28 12.72 14.52 12.96C14.76 13.08 14.88 13.2 15.12 13.44C15.24 13.44 15.24 13.68 15.12 13.8ZM13.08 9.12C12.84 9 12.6 9 12.48 8.88C12.36 8.88 12.24 8.88 12.24 8.88C12.12 8.88 12 8.76 12.12 8.64C12.12 8.52 12.24 8.4 12.36 8.4C12.72 8.4 13.08 8.52 13.44 8.64C14.16 9 14.52 9.6 14.64 10.32V10.44C14.64 10.56 14.64 10.56 14.64 10.68V10.8C14.64 10.92 14.28 11.04 14.28 10.8V10.68C14.28 10.32 14.16 9.96 14.04 9.6C13.68 9.48 13.44 9.24 13.08 9.12ZM13.68 10.56V10.68C13.68 10.8 13.56 10.8 13.56 10.8C13.44 10.8 13.44 10.68 13.32 10.56C13.32 10.44 13.32 10.32 13.32 10.32C13.32 10.2 13.2 9.96 13.08 9.84C12.96 9.84 12.96 9.72 12.84 9.72C12.72 9.72 12.6 9.72 12.48 9.72C12.36 9.72 12.36 9.6 12.36 9.48C12.36 9.36 12.48 9.36 12.6 9.36C13.08 9.36 13.56 9.72 13.68 10.56ZM15.24 11.52C15.12 11.52 15 11.4 15 11.28C15 11.04 15 10.8 15 10.56C14.88 9.36 13.8 8.28 12.6 8.04C12.36 8.04 12.24 8.04 12 7.92C11.88 7.92 11.76 7.92 11.64 7.8C11.64 7.68 11.76 7.56 11.88 7.56H12C13.68 7.56 15.12 8.76 15.36 10.44C15.36 10.68 15.48 11.04 15.48 11.28C15.48 11.4 15.36 11.52 15.24 11.52ZM17.4 8.52C17.16 7.68 16.08 6.48 15.12 6.36C13.08 6 10.92 6 8.88 6.36C7.92 6.6 6.84 7.68 6.6 8.52C6.24 10.2 6.24 12 6.6 13.68C6.72 14.16 7.08 14.64 7.44 15C7.92 15.36 8.4 15.72 8.88 15.84C8.88 15.84 9 15.84 9 15.96V18.48C9 18.6 9.12 18.72 9.24 18.6L10.44 17.4C10.44 17.4 11.4 16.44 11.52 16.2C12.72 16.2 13.92 16.2 15.12 15.96C16.08 15.72 17.16 14.64 17.4 13.8C17.76 12 17.76 10.2 17.4 8.52ZM15.12 13.8C14.88 14.16 14.64 14.52 14.28 14.76C14.16 14.76 14.04 14.88 13.92 14.88C13.92 14.88 13.8 14.88 13.92 14.88C13.8 14.88 13.68 14.76 13.56 14.76C12.24 14.28 11.04 13.56 10.2 12.48C9.72 11.88 9.24 11.16 8.88 10.44C8.76 10.08 8.52 9.72 8.4 9.36C8.28 9 8.4 8.76 8.64 8.52C8.88 8.28 9.12 8.16 9.36 8.04C9.6 7.92 9.72 8.04 9.96 8.16C10.32 8.52 10.56 8.88 10.8 9.36C10.92 9.6 10.92 9.96 10.68 10.2C10.68 10.2 10.56 10.32 10.44 10.32L10.32 10.44C10.2 10.56 10.2 10.68 10.32 10.8C10.68 11.76 11.28 12.48 12.12 12.84C12.24 12.84 12.36 12.96 12.6 12.96C12.84 12.96 12.96 12.6 13.2 12.48C13.44 12.36 13.68 12.36 13.92 12.48C14.16 12.6 14.28 12.72 14.52 12.96C14.76 13.08 14.88 13.2 15.12 13.44C15.24 13.44 15.24 13.68 15.12 13.8ZM13.08 9.12C12.84 9 12.6 9 12.48 8.88C12.36 8.88 12.24 8.88 12.24 8.88C12.12 8.88 12 8.76 12.12 8.64C12.12 8.52 12.24 8.4 12.36 8.4C12.72 8.4 13.08 8.52 13.44 8.64C14.16 9 14.52 9.6 14.64 10.32V10.44C14.64 10.56 14.64 10.56 14.64 10.68V10.8C14.64 10.92 14.28 11.04 14.28 10.8V10.68C14.28 10.32 14.16 9.96 14.04 9.6C13.68 9.48 13.44 9.24 13.08 9.12ZM13.68 10.56V10.68C13.68 10.8 13.56 10.8 13.56 10.8C13.44 10.8 13.44 10.68 13.32 10.56C13.32 10.44 13.32 10.32 13.32 10.32C13.32 10.2 13.2 9.96 13.08 9.84C12.96 9.84 12.96 9.72 12.84 9.72C12.72 9.72 12.6 9.72 12.48 9.72C12.36 9.72 12.36 9.6 12.36 9.48C12.36 9.36 12.48 9.36 12.6 9.36C13.08 9.36 13.56 9.72 13.68 10.56ZM15.24 11.52C15.12 11.52 15 11.4 15 11.28C15 11.04 15 10.8 15 10.56C14.88 9.36 13.8 8.28 12.6 8.04C12.36 8.04 12.24 8.04 12 7.92C11.88 7.92 11.76 7.92 11.64 7.8C11.64 7.68 11.76 7.56 11.88 7.56H12C13.68 7.56 15.12 8.76 15.36 10.44C15.36 10.68 15.48 11.04 15.48 11.28C15.48 11.4 15.36 11.52 15.24 11.52ZM17.4 8.52C17.16 7.68 16.08 6.48 15.12 6.36C13.08 6 10.92 6 8.88 6.36C7.92 6.6 6.84 7.68 6.6 8.52C6.24 10.2 6.24 12 6.6 13.68C6.72 14.16 7.08 14.64 7.44 15C7.92 15.36 8.4 15.72 8.88 15.84C8.88 15.84 9 15.84 9 15.96V18.48C9 18.6 9.12 18.72 9.24 18.6L10.44 17.4C10.44 17.4 11.4 16.44 11.52 16.2C12.72 16.2 13.92 16.2 15.12 15.96C16.08 15.72 17.16 14.64 17.4 13.8C17.76 12 17.76 10.2 17.4 8.52ZM15.12 13.8C14.88 14.16 14.64 14.52 14.28 14.76C14.16 14.76 14.04 14.88 13.92 14.88C13.92 14.88 13.8 14.88 13.92 14.88C13.8 14.88 13.68 14.76 13.56 14.76C12.24 14.28 11.04 13.56 10.2 12.48C9.72 11.88 9.24 11.16 8.88 10.44C8.76 10.08 8.52 9.72 8.4 9.36C8.28 9 8.4 8.76 8.64 8.52C8.88 8.28 9.12 8.16 9.36 8.04C9.6 7.92 9.72 8.04 9.96 8.16C10.32 8.52 10.56 8.88 10.8 9.36C10.92 9.6 10.92 9.96 10.68 10.2C10.68 10.2 10.56 10.32 10.44 10.32L10.32 10.44C10.2 10.56 10.2 10.68 10.32 10.8C10.68 11.76 11.28 12.48 12.12 12.84C12.24 12.84 12.36 12.96 12.6 12.96C12.84 12.96 12.96 12.6 13.2 12.48C13.44 12.36 13.68 12.36 13.92 12.48C14.16 12.6 14.28 12.72 14.52 12.96C14.76 13.08 14.88 13.2 15.12 13.44C15.24 13.44 15.24 13.68 15.12 13.8ZM13.08 9.12C12.84 9 12.6 9 12.48 8.88C12.36 8.88 12.24 8.88 12.24 8.88C12.12 8.88 12 8.76 12.12 8.64C12.12 8.52 12.24 8.4 12.36 8.4C12.72 8.4 13.08 8.52 13.44 8.64C14.16 9 14.52 9.6 14.64 10.32V10.44C14.64 10.56 14.64 10.56 14.64 10.68V10.8C14.64 10.92 14.28 11.04 14.28 10.8V10.68C14.28 10.32 14.16 9.96 14.04 9.6C13.68 9.48 13.44 9.24 13.08 9.12ZM13.68 10.56V10.68C13.68 10.8 13.56 10.8 13.56 10.8C13.44 10.8 13.44 10.68 13.32 10.56C13.32 10.44 13.32 10.32 13.32 10.32C13.32 10.2 13.2 9.96 13.08 9.84C12.96 9.84 12.96 9.72 12.84 9.72C12.72 9.72 12.6 9.72 12.48 9.72C12.36 9.72 12.36 9.6 12.36 9.48C12.36 9.36 12.48 9.36 12.6 9.36C13.08 9.36 13.56 9.72 13.68 10.56ZM15.24 11.52C15.12 11.52 15 11.4 15 11.28C15 11.04 15 10.8 15 10.56C14.88 9.36 13.8 8.28 12.6 8.04C12.36 8.04 12.24 8.04 12 7.92C11.88 7.92 11.76 7.92 11.64 7.8C11.64 7.68 11.76 7.56 11.88 7.56H12C13.68 7.56 15.12 8.76 15.36 10.44C15.36 10.68 15.48 11.04 15.48 11.28C15.48 11.4 15.36 11.52 15.24 11.52ZM17.4 8.52C17.16 7.68 16.08 6.48 15.12 6.36C13.08 6 10.92 6 8.88 6.36C7.92 6.6 6.84 7.68 6.6 8.52C6.24 10.2 6.24 12 6.6 13.68C6.72 14.16 7.08 14.64 7.44 15C7.92 15.36 8.4 15.72 8.88 15.84C8.88 15.84 9 15.84 9 15.96V18.48C9 18.6 9.12 18.72 9.24 18.6L10.44 17.4C10.44 17.4 11.4 16.44 11.52 16.2C12.72 16.2 13.92 16.2 15.12 15.96C16.08 15.72 17.16 14.64 17.4 13.8C17.76 12 17.76 10.2 17.4 8.52ZM15.12 13.8C14.88 14.16 14.64 14.52 14.28 14.76C14.16 14.76 14.04 14.88 13.92 14.88C13.92 14.88 13.8 14.88 13.92 14.88C13.8 14.88 13.68 14.76 13.56 14.76C12.24 14.28 11.04 13.56 10.2 12.48C9.72 11.88 9.24 11.16 8.88 10.44C8.76 10.08 8.52 9.72 8.4 9.36C8.28 9 8.4 8.76 8.64 8.52C8.88 8.28 9.12 8.16 9.36 8.04C9.6 7.92 9.72 8.04 9.96 8.16C10.32 8.52 10.56 8.88 10.8 9.36C10.92 9.6 10.92 9.96 10.68 10.2C10.68 10.2 10.56 10.32 10.44 10.32L10.32 10.44C10.2 10.56 10.2 10.68 10.32 10.8C10.68 11.76 11.28 12.48 12.12 12.84C12.24 12.84 12.36 12.96 12.6 12.96C12.84 12.96 12.96 12.6 13.2 12.48C13.44 12.36 13.68 12.36 13.92 12.48C14.16 12.6 14.28 12.72 14.52 12.96C14.76 13.08 14.88 13.2 15.12 13.44C15.24 13.44 15.24 13.68 15.12 13.8ZM13.08 9.12C12.84 9 12.6 9 12.48 8.88C12.36 8.88 12.24 8.88 12.24 8.88C12.12 8.88 12 8.76 12.12 8.64C12.12 8.52 12.24 8.4 12.36 8.4C12.72 8.4 13.08 8.52 13.44 8.64C14.16 9 14.52 9.6 14.64 10.32V10.44C14.64 10.56 14.64 10.56 14.64 10.68V10.8C14.64 10.92 14.28 11.04 14.28 10.8V10.68C14.28 10.32 14.16 9.96 14.04 9.6C13.68 9.48 13.44 9.24 13.08 9.12ZM13.68 10.56V10.68C13.68 10.8 13.56 10.8 13.56 10.8C13.44 10.8 13.44 10.68 13.32 10.56C13.32 10.44 13.32 10.32 13.32 10.32C13.32 10.2 13.2 9.96 13.08 9.84C12.96 9.84 12.96 9.72 12.84 9.72C12.72 9.72 12.6 9.72 12.48 9.72C12.36 9.72 12.36 9.6 12.36 9.48C12.36 9.36 12.48 9.36 12.6 9.36C13.08 9.36 13.56 9.72 13.68 10.56ZM15.24 11.52C15.12 11.52 15 11.4 15 11.28C15 11.04 15 10.8 15 10.56C14.88 9.36 13.8 8.28 12.6 8.04C12.36 8.04 12.24 8.04 12 7.92C11.88 7.92 11.76 7.92 11.64 7.8C11.64 7.68 11.76 7.56 11.88 7.56H12C13.68 7.56 15.12 8.76 15.36 10.44C15.36 10.68 15.48 11.04 15.48 11.28C15.48 11.4 15.36 11.52 15.24 11.52ZM12 0C5.4 0 0 5.4 0 12C0 18.6 5.4 24 12 24C18.6 24 24 18.6 24 12C24 5.4 18.6 0 12 0ZM18.6 13.92C18.24 15.36 16.8 16.8 15.36 17.04C14.28 17.28 13.08 17.4 12 17.4C11.64 17.4 11.28 17.4 11.04 17.4L9.48 18.96C9.12 19.44 8.4 19.2 8.4 18.6V17.04C7.08 16.68 5.64 15.24 5.28 13.92C4.92 12 4.92 10.08 5.28 8.16C5.64 6.84 7.08 5.28 8.52 5.04C10.8 4.56 13.08 4.56 15.24 5.04C16.68 5.28 18.12 6.84 18.48 8.16C19.08 10.2 19.08 12.12 18.6 13.92ZM15.12 6.36C13.08 6 10.92 6 8.88 6.36C7.92 6.6 6.84 7.68 6.6 8.52C6.24 10.2 6.24 12 6.6 13.68C6.72 14.16 7.08 14.64 7.44 15C7.92 15.36 8.4 15.72 8.88 15.84C8.88 15.84 9 15.84 9 15.96V18.48C9 18.6 9.12 18.72 9.24 18.6L10.44 17.4C10.44 17.4 11.4 16.44 11.52 16.2C12.72 16.2 13.92 16.2 15.12 15.96C16.08 15.72 17.16 14.64 17.4 13.8C17.76 12.12 17.76 10.32 17.4 8.64C17.16 7.68 16.08 6.6 15.12 6.36ZM15.12 13.8C14.88 14.16 14.64 14.52 14.28 14.76C14.16 14.76 14.04 14.88 13.92 14.88C13.92 14.88 13.8 14.88 13.92 14.88C13.8 14.88 13.68 14.76 13.56 14.76C12.24 14.28 11.04 13.56 10.2 12.48C9.72 11.88 9.24 11.16 8.88 10.44C8.76 10.08 8.52 9.72 8.4 9.36C8.28 9 8.4 8.76 8.64 8.52C8.88 8.28 9.12 8.16 9.36 8.04C9.6 7.92 9.72 8.04 9.96 8.16C10.32 8.52 10.56 8.88 10.8 9.36C10.92 9.6 10.92 9.96 10.68 10.2C10.68 10.2 10.56 10.32 10.44 10.32L10.32 10.44C10.2 10.56 10.2 10.68 10.32 10.8C10.68 11.76 11.28 12.48 12.12 12.84C12.24 12.84 12.36 12.96 12.6 12.96C12.84 12.96 12.96 12.6 13.2 12.48C13.44 12.36 13.68 12.36 13.92 12.48C14.16 12.6 14.28 12.72 14.52 12.96C14.76 13.08 14.88 13.2 15.12 13.44C15.24 13.44 15.24 13.68 15.12 13.8ZM13.08 9.12C12.84 9 12.6 9 12.48 8.88C12.36 8.88 12.24 8.88 12.24 8.88C12.12 8.88 12 8.76 12.12 8.64C12.12 8.52 12.24 8.4 12.36 8.4C12.72 8.4 13.08 8.52 13.44 8.64C14.16 9 14.52 9.6 14.64 10.32V10.44C14.64 10.56 14.64 10.56 14.64 10.68V10.8C14.64 10.92 14.28 11.04 14.28 10.8V10.68C14.28 10.32 14.16 9.96 14.04 9.6C13.68 9.48 13.44 9.24 13.08 9.12ZM13.68 10.56V10.68C13.68 10.8 13.56 10.8 13.56 10.8C13.44 10.8 13.44 10.68 13.32 10.56C13.32 10.44 13.32 10.32 13.32 10.32C13.32 10.2 13.2 9.96 13.08 9.84C12.96 9.84 12.96 9.72 12.84 9.72C12.72 9.72 12.6 9.72 12.48 9.72C12.36 9.72 12.36 9.6 12.36 9.48C12.36 9.36 12.48 9.36 12.6 9.36C13.08 9.36 13.56 9.72 13.68 10.56ZM15.24 11.52C15.12 11.52 15 11.4 15 11.28C15 11.04 15 10.8 15 10.56C14.88 9.36 13.8 8.28 12.6 8.04C12.36 8.04 12.24 8.04 12 7.92C11.88 7.92 11.76 7.92 11.64 7.8C11.64 7.68 11.76 7.56 11.88 7.56H12C13.68 7.56 15.12 8.76 15.36 10.44C15.36 10.68 15.48 11.04 15.48 11.28C15.48 11.4 15.36 11.52 15.24 11.52ZM17.4 8.52C17.16 7.68 16.08 6.48 15.12 6.36C13.08 6 10.92 6 8.88 6.36C7.92 6.6 6.84 7.68 6.6 8.52C6.24 10.2 6.24 12 6.6 13.68C6.72 14.16 7.08 14.64 7.44 15C7.92 15.36 8.4 15.72 8.88 15.84C8.88 15.84 9 15.84 9 15.96V18.48C9 18.6 9.12 18.72 9.24 18.6L10.44 17.4C10.44 17.4 11.4 16.44 11.52 16.2C12.72 16.2 13.92 16.2 15.12 15.96C16.08 15.72 17.16 14.64 17.4 13.8C17.76 12 17.76 10.2 17.4 8.52ZM15.12 13.8C14.88 14.16 14.64 14.52 14.28 14.76C14.16 14.76 14.04 14.88 13.92 14.88C13.92 14.88 13.8 14.88 13.92 14.88C13.8 14.88 13.68 14.76 13.56 14.76C12.24 14.28 11.04 13.56 10.2 12.48C9.72 11.88 9.24 11.16 8.88 10.44C8.76 10.08 8.52 9.72 8.4 9.36C8.28 9 8.4 8.76 8.64 8.52C8.88 8.28 9.12 8.16 9.36 8.04C9.6 7.92 9.72 8.04 9.96 8.16C10.32 8.52 10.56 8.88 10.8 9.36C10.92 9.6 10.92 9.96 10.68 10.2C10.68 10.2 10.56 10.32 10.44 10.32L10.32 10.44C10.2 10.56 10.2 10.68 10.32 10.8C10.68 11.76 11.28 12.48 12.12 12.84C12.24 12.84 12.36 12.96 12.6 12.96C12.84 12.96 12.96 12.6 13.2 12.48C13.44 12.36 13.68 12.36 13.92 12.48C14.16 12.6 14.28 12.72 14.52 12.96C14.76 13.08 14.88 13.2 15.12 13.44C15.24 13.44 15.24 13.68 15.12 13.8ZM13.08 9.12C12.84 9 12.6 9 12.48 8.88C12.36 8.88 12.24 8.88 12.24 8.88C12.12 8.88 12 8.76 12.12 8.64C12.12 8.52 12.24 8.4 12.36 8.4C12.72 8.4 13.08 8.52 13.44 8.64C14.16 9 14.52 9.6 14.64 10.32V10.44C14.64 10.56 14.64 10.56 14.64 10.68V10.8C14.64 10.92 14.28 11.04 14.28 10.8V10.68C14.28 10.32 14.16 9.96 14.04 9.6C13.68 9.48 13.44 9.24 13.08 9.12ZM13.68 10.56V10.68C13.68 10.8 13.56 10.8 13.56 10.8C13.44 10.8 13.44 10.68 13.32 10.56C13.32 10.44 13.32 10.32 13.32 10.32C13.32 10.2 13.2 9.96 13.08 9.84C12.96 9.84 12.96 9.72 12.84 9.72C12.72 9.72 12.6 9.72 12.48 9.72C12.36 9.72 12.36 9.6 12.36 9.48C12.36 9.36 12.48 9.36 12.6 9.36C13.08 9.36 13.56 9.72 13.68 10.56ZM15.24 11.52C15.12 11.52 15 11.4 15 11.28C15 11.04 15 10.8 15 10.56C14.88 9.36 13.8 8.28 12.6 8.04C12.36 8.04 12.24 8.04 12 7.92C11.88 7.92 11.76 7.92 11.64 7.8C11.64 7.68 11.76 7.56 11.88 7.56H12C13.68 7.56 15.12 8.76 15.36 10.44C15.36 10.68 15.48 11.04 15.48 11.28C15.48 11.4 15.36 11.52 15.24 11.52ZM17.4 8.52C17.16 7.68 16.08 6.48 15.12 6.36C13.08 6 10.92 6 8.88 6.36C7.92 6.6 6.84 7.68 6.6 8.52C6.24 10.2 6.24 12 6.6 13.68C6.72 14.16 7.08 14.64 7.44 15C7.92 15.36 8.4 15.72 8.88 15.84C8.88 15.84 9 15.84 9 15.96V18.48C9 18.6 9.12 18.72 9.24 18.6L10.44 17.4C10.44 17.4 11.4 16.44 11.52 16.2C12.72 16.2 13.92 16.2 15.12 15.96C16.08 15.72 17.16 14.64 17.4 13.8C17.76 12 17.76 10.2 17.4 8.52ZM15.12 13.8C14.88 14.16 14.64 14.52 14.28 14.76C14.16 14.76 14.04 14.88 13.92 14.88C13.92 14.88 13.8 14.88 13.92 14.88C13.8 14.88 13.68 14.76 13.56 14.76C12.24 14.28 11.04 13.56 10.2 12.48C9.72 11.88 9.24 11.16 8.88 10.44C8.76 10.08 8.52 9.72 8.4 9.36C8.28 9 8.4 8.76 8.64 8.52C8.88 8.28 9.12 8.16 9.36 8.04C9.6 7.92 9.72 8.04 9.96 8.16C10.32 8.52 10.56 8.88 10.8 9.36C10.92 9.6 10.92 9.96 10.68 10.2C10.68 10.2 10.56 10.32 10.44 10.32L10.32 10.44C10.2 10.56 10.2 10.68 10.32 10.8C10.68 11.76 11.28 12.48 12.12 12.84C12.24 12.84 12.36 12.96 12.6 12.96C12.84 12.96 12.96 12.6 13.2 12.48C13.44 12.36 13.68 12.36 13.92 12.48C14.16 12.6 14.28 12.72 14.52 12.96C14.76 13.08 14.88 13.2 15.12 13.44C15.24 13.44 15.24 13.68 15.12 13.8ZM13.08 9.12C12.84 9 12.6 9 12.48 8.88C12.36 8.88 12.24 8.88 12.24 8.88C12.12 8.88 12 8.76 12.12 8.64C12.12 8.52 12.24 8.4 12.36 8.4C12.72 8.4 13.08 8.52 13.44 8.64C14.16 9 14.52 9.6 14.64 10.32V10.44C14.64 10.56 14.64 10.56 14.64 10.68V10.8C14.64 10.92 14.28 11.04 14.28 10.8V10.68C14.28 10.32 14.16 9.96 14.04 9.6C13.68 9.48 13.44 9.24 13.08 9.12ZM13.68 10.56V10.68C13.68 10.8 13.56 10.8 13.56 10.8C13.44 10.8 13.44 10.68 13.32 10.56C13.32 10.44 13.32 10.32 13.32 10.32C13.32 10.2 13.2 9.96 13.08 9.84C12.96 9.84 12.96 9.72 12.84 9.72C12.72 9.72 12.6 9.72 12.48 9.72C12.36 9.72 12.36 9.6 12.36 9.48C12.36 9.36 12.48 9.36 12.6 9.36C13.08 9.36 13.56 9.72 13.68 10.56ZM15.24 11.52C15.12 11.52 15 11.4 15 11.28C15 11.04 15 10.8 15 10.56C14.88 9.36 13.8 8.28 12.6 8.04C12.36 8.04 12.24 8.04 12 7.92C11.88 7.92 11.76 7.92 11.64 7.8C11.64 7.68 11.76 7.56 11.88 7.56H12C13.68 7.56 15.12 8.76 15.36 10.44C15.36 10.68 15.48 11.04 15.48 11.28C15.48 11.4 15.36 11.52 15.24 11.52ZM14.04 14.88C13.92 14.88 13.92 14.88 14.04 14.88C13.92 14.88 14.04 14.88 14.04 14.88Z" fill="#7D539F"/>
</svg>
