<svg width="16" height="16" viewBox="0 0 16 16" fill="none" xmlns="http://www.w3.org/2000/svg">
<g clip-path="url(#clip0)">
<path d="M16 6.3625C16 9.50937 13.4406 12.0688 10.2969 12.0688C9.47188 12.0688 8.66562 11.8906 7.92812 11.5531L8.375 8.525C8.4375 8.09687 8.29375 7.65938 7.9875 7.35313C7.72813 7.09375 7.38125 6.95 7.01562 6.95C6.95 6.95 6.88125 6.95625 6.81563 6.96562L4.66563 7.28125C4.61562 6.97813 4.59062 6.67188 4.59062 6.3625C4.59062 3.21563 7.15 0.65625 10.2969 0.65625C13.4438 0.65625 16 3.21563 16 6.3625ZM7.34375 7.99375C7.45 8.1 7.49687 8.24688 7.475 8.39375L6.78125 13.1156C6.75625 13.2906 6.63437 13.4375 6.46562 13.4937C6.29688 13.55 6.1125 13.5063 5.9875 13.3813L5.13125 12.525L2.79063 14.8656C2.48125 15.175 2.07188 15.3438 1.63437 15.3438C1.19687 15.3438 0.7875 15.175 0.478125 14.8656C-0.159375 14.2281 -0.159375 13.1906 0.478125 12.5531L2.81875 10.2125L1.9625 9.35625C1.8375 9.23125 1.79375 9.04688 1.85 8.87813C1.90625 8.70938 2.05 8.5875 2.22813 8.5625L6.94688 7.86562C7.09063 7.84062 7.24062 7.8875 7.34375 7.99375Z" fill="#7C107E"/>
</g>
<defs>
<clipPath id="clip0">
<rect width="16" height="16" fill="white"/>
</clipPath>
</defs>
</svg>
