<svg width="12" height="12" viewBox="0 0 12 12" fill="none" xmlns="http://www.w3.org/2000/svg">
<path d="M7.63636 0.545456H2.72727C2.29091 0.545456 1.90909 0.818183 1.74545 1.2L0.109091 5.07273C0.0545455 5.18182 0 5.29091 0 5.45455V6.49091V6.54546C0 7.14546 0.490909 7.63636 1.09091 7.63636H4.52727L3.98182 10.1455C3.98182 10.2 3.98182 10.2546 3.98182 10.3091C3.98182 10.5273 4.09091 10.7454 4.2 10.9091L4.8 11.4545L8.4 7.85455C8.61818 7.63636 8.72727 7.36364 8.72727 7.09091V1.63636C8.72727 1.03637 8.23636 0.545456 7.63636 0.545456ZM9.81818 0.545456V7.09091H12V0.545456H9.81818Z" fill="#7C107E"/>
</svg>
