<svg width="18" height="20" viewBox="0 0 18 20" fill="none" xmlns="http://www.w3.org/2000/svg">
<path d="M16.9601 7.74411C16.4419 7.22586 15.7529 6.94047 15.02 6.94047C14.2871 6.94047 13.5981 7.22593 13.0799 7.74411C12.2737 8.55037 12.0754 9.73771 12.4845 10.7317L10.9386 11.0409L11.0011 12.3297L13.3492 11.8601C13.8263 12.2279 14.4076 12.4279 15.0199 12.4279C15.7529 12.4279 16.4418 12.1425 16.9601 11.6242C18.0298 10.5545 18.0298 8.81387 16.9601 7.74411ZM16.0578 10.7219C15.7806 10.9991 15.4121 11.1518 15.0201 11.1518C14.6281 11.1518 14.2596 10.9991 13.9824 10.7219C13.4102 10.1497 13.4102 9.21872 13.9824 8.64646C14.2596 8.36929 14.6281 8.21663 15.0201 8.21663C15.4121 8.21663 15.7806 8.36929 16.0578 8.64646C16.6299 9.21872 16.6299 10.1497 16.0578 10.7219Z" fill="white"/>
<path d="M10.0187 11.2248L9.01273 10.2189L7.68404 10.1951L0.38546 18.9534C0.174214 19.2069 0.191117 19.5797 0.42445 19.8131C0.548423 19.9371 0.711857 20 0.875763 20C1.02034 20 1.16533 19.9511 1.28411 19.8521L10.093 12.5114L10.1155 12.5069L10.0187 11.2248Z" fill="white"/>
<path d="M8.71913 3.17724C8.68324 3.20956 8.64788 3.2429 8.61334 3.27744C8.61192 3.27886 8.61058 3.28041 8.60916 3.28182C8.60714 3.28384 8.60526 3.28593 8.60324 3.28801C8.09159 3.80505 7.8097 4.4895 7.8097 5.21751C7.8097 5.82983 8.00963 6.41118 8.37745 6.88822L7.89704 9.29044L9.21118 9.22667L9.50559 7.75475C9.83347 7.89017 10.188 7.96121 10.5535 7.96121C11.2863 7.96121 11.9754 7.67576 12.4935 7.15758C13.0117 6.63939 13.2972 5.95037 13.2972 5.21751C13.2972 4.48458 13.0118 3.79562 12.4935 3.27737C11.9292 2.71306 11.1783 2.4468 10.4375 2.47791C10.444 2.42855 10.4494 2.37859 10.4529 2.32748C10.503 1.58707 10.2166 0.8732 9.60155 0.205658C9.36277 -0.0534661 8.95906 -0.070099 8.69994 0.168756C8.44081 0.407611 8.42425 0.811248 8.66303 1.07037C9.02849 1.467 9.20256 1.85785 9.18034 2.23206C9.1534 2.68397 8.85367 3.03926 8.71913 3.17724ZM9.50633 4.1901C9.52627 4.17246 9.55226 4.14876 9.5831 4.11886C9.85967 3.87441 10.206 3.75071 10.5534 3.75071C10.9292 3.75071 11.3051 3.89381 11.591 4.17987C11.8683 4.45704 12.0209 4.82559 12.0209 5.21758C12.0209 5.60956 11.8683 5.97805 11.5911 6.25522C11.591 6.25522 11.591 6.25522 11.591 6.25529C11.3139 6.53246 10.9454 6.68512 10.5534 6.68512C10.1614 6.68512 9.79287 6.53246 9.51563 6.25522C9.23846 5.97805 9.0858 5.60956 9.0858 5.21758C9.08586 4.83024 9.23542 4.46613 9.50633 4.1901Z" fill="white"/>
</svg>
