<svg width="12" height="12" viewBox="0 0 12 12" fill="none" xmlns="http://www.w3.org/2000/svg">
<path d="M6.48645 10.5965L6 11.0829L5.51355 10.5965L5.50274 10.5856L5.49129 10.5755C3.92289 9.18808 2.66596 8.06064 1.79627 7.00252C0.932291 5.95135 0.5 5.02639 0.5 4.05C0.5 2.46614 1.71614 1.25 3.3 1.25C4.17055 1.25 5.05177 1.66342 5.61831 2.33297L6 2.78406L6.38169 2.33297C6.94824 1.66342 7.82945 1.25 8.7 1.25C10.2839 1.25 11.5 2.46614 11.5 4.05C11.5 5.0264 11.0677 5.95135 10.2037 7.00252C9.33404 8.06064 8.07711 9.18808 6.50871 10.5755L6.49726 10.5856L6.48645 10.5965Z" fill="#7C107E" stroke="#7C107E"/>
</svg>
