<?xml version="1.0" encoding="utf-8"?>
<!-- Generator: Adobe Illustrator 21.0.0, SVG Export Plug-In . SVG Version: 6.00 Build 0)  -->
<svg version="1.1" id="Слой_1" xmlns="http://www.w3.org/2000/svg" xmlns:xlink="http://www.w3.org/1999/xlink" x="0px" y="0px"
	 viewBox="0 0 470 470" style="enable-background:new 0 0 470 470;" xml:space="preserve">
<g>
	<path d="M235,148c40.8,0,74-33.2,74-74c0-40.8-33.2-74-74-74c-40.8,0-74,33.2-74,74C161,114.8,194.2,148,235,148z M235,15
		c32.5,0,59,26.5,59,59c0,32.5-26.5,59-59,59c-32.5,0-59-26.5-59-59C176,41.5,202.5,15,235,15z"/>
	<path d="M114.5,298.5h60h9.2h171.9c4.1,0,7.5-3.4,7.5-7.5c0-70.6-57.4-128-128-128s-128,57.4-128,128
		C107,295.2,110.3,298.5,114.5,298.5z M235,178c59.8,0,108.9,46.7,112.8,105.5H183.7h-9.2h-52.3C126.1,224.7,175.2,178,235,178z"/>
	<path d="M140.4,377.7l-41.1-6.9l-19.3-37c-1.3-2.5-3.9-4-6.7-4s-5.4,1.6-6.7,4l-19.3,37l-41.1,6.9c-2.8,0.5-5,2.4-5.9,5.1
		c-0.9,2.7-0.2,5.6,1.8,7.6l29.2,29.8l-6.1,41.3c-0.4,2.8,0.7,5.5,3,7.2c2.3,1.6,5.2,1.9,7.8,0.6l37.3-18.6l37.3,18.6
		c1.1,0.5,2.2,0.8,3.3,0.8c1.6,0,3.1-0.5,4.4-1.4c2.3-1.6,3.4-4.4,3-7.2l-6.1-41.3l29.2-29.8c2-2,2.6-4.9,1.8-7.6
		C145.4,380.1,143.2,378.2,140.4,377.7z M102,412.3c-1.6,1.7-2.4,4-2.1,6.4l4.6,30.7l-27.8-13.8c-2.1-1-4.6-1-6.7,0l-27.8,13.8
		l4.6-30.7c0.3-2.3-0.4-4.7-2.1-6.4l-21.8-22.2l30.6-5.1c2.3-0.4,4.3-1.8,5.4-3.9l14.4-27.5L87.7,381c1.1,2.1,3.1,3.5,5.4,3.9
		l30.6,5.1L102,412.3z"/>
	<path d="M302.1,377.7l-41.1-6.9l-19.3-37c-1.3-2.5-3.9-4-6.7-4s-5.4,1.6-6.7,4l-19.3,37l-41.1,6.9c-2.8,0.5-5,2.4-5.9,5.1
		c-0.9,2.7-0.2,5.6,1.8,7.6l29.2,29.8l-6.1,41.3c-0.4,2.8,0.7,5.5,3,7.2c2.3,1.6,5.2,1.9,7.8,0.6l37.3-18.6l37.3,18.6
		c1.1,0.5,2.2,0.8,3.3,0.8c1.6,0,3.1-0.5,4.4-1.4c2.3-1.6,3.4-4.4,3-7.2l-6.1-41.3l29.2-29.8c2-2,2.6-4.9,1.8-7.6
		C307.1,380.1,304.8,378.2,302.1,377.7z M263.6,412.3L263.6,412.3c-1.6,1.7-2.4,4-2.1,6.4l4.6,30.7l-27.8-13.8
		c-1.1-0.5-2.2-0.8-3.3-0.8s-2.3,0.3-3.3,0.8l-27.8,13.8l4.6-30.7c0.3-2.3-0.4-4.7-2.1-6.4l-21.8-22.2l30.6-5.1
		c2.3-0.4,4.3-1.8,5.4-3.9l14.4-27.5l14.4,27.5c1.1,2.1,3.1,3.5,5.4,3.9l30.6,5.1L263.6,412.3z"/>
	<path d="M469.6,382.8c-0.9-2.7-3.1-4.6-5.9-5.1l-41.1-6.9l-19.3-37c-1.3-2.5-3.9-4-6.7-4c-2.8,0-5.4,1.6-6.7,4l-19.3,37l-41.1,6.9
		c-2.8,0.5-5,2.4-5.9,5.1c-0.9,2.7-0.2,5.6,1.8,7.6l29.2,29.8l-6.1,41.3c-0.4,2.8,0.7,5.5,3,7.2c2.3,1.6,5.2,1.9,7.8,0.6l37.3-18.6
		l37.3,18.6c1.1,0.5,2.2,0.8,3.3,0.8c1.6,0,3.1-0.5,4.4-1.4c2.3-1.6,3.4-4.4,3-7.2l-6.1-41.3l29.2-29.8
		C469.8,388.4,470.5,385.4,469.6,382.8z M425.3,412.3L425.3,412.3c-1.6,1.7-2.4,4-2.1,6.4l4.6,30.7L400,435.5
		c-1.1-0.5-2.2-0.8-3.3-0.8c-1.1,0-2.3,0.3-3.3,0.8l-27.8,13.8l4.6-30.7c0.3-2.3-0.4-4.7-2.1-6.4l-21.8-22.2l30.6-5.1
		c2.3-0.4,4.3-1.8,5.4-3.9l14.4-27.5L411,381c1.1,2.1,3.1,3.5,5.4,3.9l30.6,5.1L425.3,412.3z"/>
</g>
</svg>
