<?xml version="1.0" encoding="utf-8"?>
<!-- Generator: Adobe Illustrator 21.0.0, SVG Export Plug-In . SVG Version: 6.00 Build 0)  -->
<svg version="1.1" id="Capa_1" xmlns="http://www.w3.org/2000/svg" xmlns:xlink="http://www.w3.org/1999/xlink" x="0px" y="0px"
	 viewBox="0 0 481.6 481.6" style="enable-background:new 0 0 481.6 481.6;" xml:space="preserve">
<g>
	<path d="M467.8,395.5c0,47.5-38.6,86.1-86.1,86.1s-86.1-38.7-86.1-86.1c0-10,1.8-19.7,5-28.7l-132.2-73.9
		c-15.8,20.6-40.6,33.9-68.4,33.9c-47.5,0-86.2-38.6-86.2-86.1s38.7-86.1,86.1-86.1c27.8,0,52.6,13.2,68.3,33.8l132.1-73.8
		c-3.2-8.9-4.9-18.5-4.9-28.5C295.4,38.6,334,0,381.5,0s86.1,38.6,86.1,86.1s-38.7,86.1-86.1,86.1c-27.8,0-52.6-13.3-68.3-33.8
		L181,212.2c3.2,9,4.9,18.5,4.9,28.5c0,9.9-1.7,19.5-4.8,28.4L313.4,343c15.8-20.4,40.5-33.6,68.2-33.6
		C429.1,309.4,467.8,348,467.8,395.5z"/>
</g>
</svg>
