<?xml version="1.0" encoding="utf-8"?>
<!-- Generator: Adobe Illustrator 21.0.0, SVG Export Plug-In . SVG Version: 6.00 Build 0)  -->
<svg version="1.1" id="Layer_1" xmlns="http://www.w3.org/2000/svg" xmlns:xlink="http://www.w3.org/1999/xlink" x="0px" y="0px"
	 viewBox="0 0 496 496" style="enable-background:new 0 0 496 496;" xml:space="preserve">
<g>
	<path d="M248,128c-66.3,0-120,53.7-120,120s53.7,120,120,120s120-53.7,120-120S314.3,128,248,128z M248,352
		c-57.3,0-104-46.7-104-104c0-57.3,46.7-104,104-104c57.3,0,104,46.7,104,104C352,305.3,305.3,352,248,352z"/>
	<path d="M483.7,424.4L407.3,348l14.3-14.3l-11.3-11.3L396,336.7l-15-15c12.1-21.8,19-46.9,19-73.7c0-83.9-68.1-152-152-152
		S96,164.1,96,248s68.1,152,152,152c26.7,0,51.8-6.9,73.7-19l15,15l-14.3,14.3l11.3,11.3l14.3-14.3l76.4,76.4
		c7.9,7.9,18.5,12.3,29.7,12.3c23.1,0,41.9-18.8,41.9-41.9C496,442.9,491.6,432.3,483.7,424.4z M151.8,344.2
		C126.1,318.5,112,284.3,112,248c0-36.3,14.1-70.5,39.8-96.2c25.7-25.7,59.8-39.8,96.2-39.8c36.3,0,70.5,14.1,96.2,39.8
		S384,211.7,384,248c0,36.3-14.1,70.5-39.8,96.2C318.5,369.9,284.3,384,248,384C211.7,384,177.5,369.9,151.8,344.2z M454.1,480
		c-6.9,0-13.4-2.7-18.3-7.6L335.6,372.3c14.2-10,26.6-22.5,36.7-36.7l100.2,100.2c4.9,4.9,7.6,11.4,7.6,18.3
		C480,468.4,468.4,480,454.1,480z"/>
</g>
<path d="M424,144c39.7,0,72-32.3,72-72S463.7,0,424,0s-72,32.3-72,72S384.3,144,424,144z M448,122.5c-7.3,3.5-15.4,5.5-24,5.5
	s-16.7-2-24-5.5V112c0-13.2,10.8-24,24-24s24,10.8,24,24V122.5z M408,56c0-8.8,7.2-16,16-16s16,7.2,16,16s-7.2,16-16,16
	S408,64.8,408,56z M424,16c30.9,0,56,25.1,56,56c0,15.3-6.2,29.1-16.1,39.2c-0.3-13.4-7.1-25.3-17.6-32.4C452.3,73,456,65,456,56
	c0-17.6-14.4-32-32-32s-32,14.4-32,32c0,9,3.7,17,9.6,22.8c-10.4,7.1-17.3,18.9-17.6,32.4C374.2,101.1,368,87.3,368,72
	C368,41.1,393.1,16,424,16z"/>
<path d="M72,144c39.7,0,72-32.3,72-72S111.7,0,72,0S0,32.3,0,72S32.3,144,72,144z M96,122.5c-7.3,3.5-15.4,5.5-24,5.5
	s-16.7-2-24-5.5V112c0-13.2,10.8-24,24-24s24,10.8,24,24V122.5z M56,56c0-8.8,7.2-16,16-16s16,7.2,16,16s-7.2,16-16,16
	S56,64.8,56,56z M72,16c30.9,0,56,25.1,56,56c0,15.3-6.2,29.1-16.1,39.2c-0.3-13.4-7.1-25.3-17.6-32.4C100.3,73,104,65,104,56
	c0-17.6-14.4-32-32-32S40,38.4,40,56c0,9,3.7,17,9.6,22.8c-10.4,7.1-17.3,18.9-17.6,32.4C22.2,101.1,16,87.3,16,72
	C16,41.1,41.1,16,72,16z"/>
<path d="M72,352c-39.7,0-72,32.3-72,72s32.3,72,72,72s72-32.3,72-72S111.7,352,72,352z M96,474.5c-7.3,3.5-15.4,5.5-24,5.5
	s-16.7-2-24-5.5V464c0-13.2,10.8-24,24-24s24,10.8,24,24V474.5z M56,408c0-8.8,7.2-16,16-16s16,7.2,16,16s-7.2,16-16,16
	S56,416.8,56,408z M111.9,463.2c-0.3-13.4-7.1-25.3-17.6-32.4c5.9-5.8,9.6-13.9,9.6-22.8c0-17.6-14.4-32-32-32s-32,14.4-32,32
	c0,9,3.7,17,9.6,22.8c-10.4,7.1-17.3,18.9-17.6,32.4C22.2,453.1,16,439.3,16,424c0-30.9,25.1-56,56-56s56,25.1,56,56
	C128,439.3,121.8,453.1,111.9,463.2z"/>
</svg>
