<svg width="24" height="24" viewBox="0 0 24 24" fill="none" xmlns="http://www.w3.org/2000/svg">
<path d="M22.913 16.7846C24.1908 14.1016 24.3474 11.0817 23.3541 8.28043C21.3039 2.49898 14.9314 -0.536107 9.14999 1.51458C6.35129 2.50742 4.12922 4.51801 2.86368 7.13984L1.63994 3.68896C1.48417 3.24994 1.0021 3.01989 0.562248 3.17565C0.122814 3.33142 -0.107245 3.81391 0.0489421 4.25376L2.01225 9.79037C2.08697 10.001 2.24273 10.1737 2.44451 10.2703C2.55891 10.3248 2.68301 10.3522 2.80754 10.3522C2.90294 10.3522 2.99834 10.3362 3.08952 10.3037L8.93428 8.23061C9.37372 8.07485 9.60377 7.59194 9.44759 7.1525C9.29182 6.71349 8.80807 6.48343 8.3699 6.6392L4.27865 8.09047C5.3327 5.76118 7.26435 3.97474 9.71353 3.10558C14.6182 1.36642 20.0223 3.94097 21.7619 8.84523C23.5014 13.7491 20.9265 19.1544 16.0226 20.894C12.4725 22.1519 8.52017 21.1848 5.95407 18.4262C5.63663 18.0843 5.10222 18.0657 4.76072 18.3832C4.41922 18.7006 4.40022 19.235 4.71766 19.5761C6.86248 21.8818 9.82835 23.1262 12.8655 23.1262C14.1112 23.1262 15.3692 22.9168 16.5862 22.4846C19.3887 21.4917 21.6348 19.4676 22.913 16.7846Z" fill="#7C107E"/>
</svg>
