<svg width="10" height="10" viewBox="0 0 10 10" fill="none" xmlns="http://www.w3.org/2000/svg">
<path d="M9.8535 0.146623C9.658 -0.0488744 9.34201 -0.0488744 9.14651 0.146623L5.00006 4.29307L0.853615 0.146623C0.658117 -0.0488744 0.342121 -0.0488744 0.146623 0.146623C-0.0488744 0.342121 -0.0488744 0.658117 0.146623 0.853615L4.29307 5.00006L0.146623 9.14651C-0.0488744 9.34201 -0.0488744 9.658 0.146623 9.8535C0.244122 9.951 0.372121 10 0.500119 10C0.628118 10 0.756116 9.951 0.853615 9.8535L5.00006 5.70705L9.14651 9.8535C9.24401 9.951 9.37201 10 9.50001 10C9.628 10 9.756 9.951 9.8535 9.8535C10.049 9.658 10.049 9.34201 9.8535 9.14651L5.70705 5.00006L9.8535 0.853615C10.049 0.658117 10.049 0.342121 9.8535 0.146623Z" fill="black"/>
</svg>
