<svg width="12" height="13" viewBox="0 0 12 13" fill="none" xmlns="http://www.w3.org/2000/svg">
<path d="M11.6565 10.4856C11.6565 11.6818 10.6947 12.6539 9.51118 12.6539C8.32763 12.6539 7.36583 11.6793 7.36583 10.4856C7.36583 10.2338 7.41068 9.98954 7.49042 9.7629L4.1964 7.90191C3.80271 8.42067 3.18477 8.7556 2.49208 8.7556C1.30852 8.7556 0.344238 7.78356 0.344238 6.58739C0.344238 5.39122 1.30852 4.41917 2.48959 4.41917C3.18228 4.41917 3.80022 4.75158 4.19141 5.27034L7.48294 3.41187C7.40321 3.18775 7.36085 2.94599 7.36085 2.69417C7.36085 1.498 8.32264 0.525955 9.5062 0.525955C10.6898 0.525955 11.6515 1.498 11.6515 2.69417C11.6515 3.89034 10.6873 4.86238 9.5062 4.86238C8.81351 4.86238 8.19557 4.52746 7.80437 4.01122L4.51035 5.86968C4.59009 6.09633 4.63244 6.33556 4.63244 6.58739C4.63244 6.83669 4.59009 7.07845 4.51284 7.30257L7.80935 9.16356C8.20304 8.64983 8.81849 8.31743 9.50869 8.31743C10.6922 8.31743 11.6565 9.28947 11.6565 10.4856Z" fill="#7C107E"/>
</svg>
