<?xml version="1.0" encoding="utf-8"?>
<!-- Generator: Adobe Illustrator 21.0.0, SVG Export Plug-In . SVG Version: 6.00 Build 0)  -->
<svg version="1.1" id="icons" xmlns="http://www.w3.org/2000/svg" xmlns:xlink="http://www.w3.org/1999/xlink" x="0px" y="0px"
	 viewBox="0 0 512 512" style="enable-background:new 0 0 512 512;" xml:space="preserve">
<path d="M168,272.1C168,272.1,168,272,168,272.1l175.8,0c0.1,0,0.1,0,0.2,0c22.1,0,40-17.9,40-40v0c0,0,0-0.1,0-0.1V40
	c0-0.1,0-0.1,0-0.2C383.9,17.9,366,0.1,344.1,0c0,0,0,0,0,0H168.1c0,0-0.1,0-0.1,0c-22.1,0-40,17.9-40,40v0v192c0,0,0,0,0,0
	c0,0,0,0,0,0C128,254.1,145.9,272.1,168,272.1L168,272.1z M168,80C168,80,168,80,168,80l175.8,0c0.1,0,0.1,0,0.2,0
	c9,0,17.3-3.1,24-8.2V104c0,0,0,0,0,0.1c0,13.2-10.7,23.9-23.9,24c0,0-0.1,0-0.1,0H168c0,0,0,0,0,0c-13.2,0-24-10.8-24-24V71.8
	C150.7,76.9,159,80,168,80L168,80z M168,144C168,144,168,144,168,144l175.8,0c0.1,0,0.1,0,0.2,0c9,0,17.3-3.1,24-8.2V168
	c0,0,0,0,0,0.1c0,13.2-10.7,23.9-23.9,24c0,0-0.1,0-0.1,0H168c0,0,0,0,0,0c-13.2,0-24-10.8-24-24v-32.2C150.7,140.9,159,144,168,144
	L168,144z M344.1,256.1C344.1,256.1,344,256,344.1,256.1L168,256c0,0,0,0,0,0c-13.2,0-24-10.8-24-24c0,0,0,0,0,0c0,0,0,0,0,0v-32.2
	c6.7,5.1,15,8.2,24,8.2c0,0,0,0,0,0h175.8c0.1,0,0.1,0,0.2,0c9,0,17.3-3.1,24-8.2V232v0c0,0,0,0.1,0,0.1
	C368,245.3,357.3,256,344.1,256.1z M167.9,16C167.9,16,168,16,167.9,16L344,16c13.2,0,24,10.8,24,24c0,13.2-10.7,23.9-23.9,24
	c0,0-0.1,0-0.1,0H168c0,0,0,0,0,0c-13.2,0-24-10.8-24-24C144,26.8,154.7,16.1,167.9,16z"/>
<path d="M175.9,408.3c0-13.2-10.8-24-24-24H56c-13.2,0-24,10.8-24,24v16c0,0.2,0.1,0.5,0.1,0.7v79c0,4.4,3.6,8,8,8H168
	c4.4,0,8-3.6,8-8v-87.7c0-0.2-0.1-0.5-0.1-0.7V408.3z M56,400.3h95.8c4.4,0,8,3.6,8,8H48C48,403.8,51.6,400.3,56,400.3z M48.2,496
	v-71.7h111.7v0c0,0.2,0.1,0.5,0.1,0.7v71H48.2z"/>
<path d="M327.9,408.3c0-13.2-10.8-24-24-24H208c-13.2,0-24,10.8-24,24v16c0,0.2,0.1,0.5,0.1,0.7v79c0,4.4,3.6,8,8,8H320
	c4.4,0,8-3.6,8-8v-87.7c0-0.2-0.1-0.5-0.1-0.7L327.9,408.3z M208,400.3h95.8c4.4,0,8,3.6,8,8H200C200,403.8,203.6,400.3,208,400.3z
	 M200.2,496v-71.7h111.7v0c0,0.2,0.1,0.5,0.1,0.7v71H200.2z"/>
<path d="M479.8,408c0-13.2-10.8-24-24-24H360c-13.2,0-24,10.8-24,24v16c0,0.2,0.1,0.5,0.1,0.7v79c0,4.4,3.6,8,8,8H472
	c4.4,0,8-3.6,8-8V416c0-0.2-0.1-0.5-0.1-0.7V408z M360,400h95.8c4.4,0,8,3.6,8,8H352C352,403.6,355.6,400,360,400z M352.2,495.7V424
	h111.7v0c0,0.2,0.1,0.5,0.1,0.7v71L352.2,495.7z"/>
<path d="M96.1,328v40c0,4.4,3.6,8,8,8s8-3.6,8-8v-32h136v32c0,4.4,3.6,8,8,8c4.4,0,8-3.6,8-8v-32h136v32c0,4.4,3.6,8,8,8s8-3.6,8-8
	v-40c0-4.4-3.6-8-8-8h-144v-32c0-4.4-3.6-8-8-8s-8,3.6-8,8v32h-144C99.7,320,96.1,323.6,96.1,328z"/>
</svg>
