<svg width="16" height="16" viewBox="0 0 16 16" fill="none" xmlns="http://www.w3.org/2000/svg">
<path d="M8.02508 0C4.77757 0 2.1333 2.64427 2.1333 5.89178C2.1333 6.73882 2.30521 7.54835 2.64903 8.29537C4.12119 11.5179 6.94674 14.9217 7.77815 15.8875C7.84067 15.9594 7.93131 16 8.02508 16C8.11884 16 8.21261 15.9594 8.272 15.8875C9.10341 14.9217 11.9258 11.5179 13.4011 8.29537C13.7418 7.54835 13.9169 6.73882 13.9169 5.89178C13.9169 2.64427 11.2726 0 8.02508 0ZM8.02508 8.95175C6.33725 8.95175 4.9651 7.57961 4.9651 5.89178C4.9651 4.20395 6.33725 2.8318 8.02508 2.8318C9.71291 2.8318 11.085 4.20395 11.085 5.89178C11.085 7.57961 9.71291 8.95175 8.02508 8.95175Z" fill="#7C107E"/>
</svg>
