<svg width="24" height="24" viewBox="0 0 24 24" fill="none" xmlns="http://www.w3.org/2000/svg">
<path d="M12 24C18.6274 24 24 18.6274 24 12C24 5.37258 18.6274 0 12 0C5.37258 0 0 5.37258 0 12C0 18.6274 5.37258 24 12 24Z" fill="#47B0D3"/>
<path d="M16.8004 5.75997L5.28041 11.16C5.04041 11.28 4.92041 11.4 4.92041 11.64C4.92041 11.88 5.04041 12.12 5.28041 12.12L8.40041 13.44L17.1604 5.63997C17.0404 5.75997 16.9204 5.75997 16.8004 5.75997Z" fill="white"/>
<path d="M17.0404 5.75999L8.40039 13.56L9.12039 18.36L10.0804 14.28L17.0404 5.75999Z" fill="#CCCCCC"/>
<path d="M10.0796 14.28L9.11963 18.36L11.2796 14.88L10.0796 14.28Z" fill="#E5E5E5"/>
<path d="M17.1596 5.87999C17.1596 5.75999 17.1596 5.75999 17.1596 5.87999L10.0796 14.4L11.3996 15L15.9596 17.04C16.3196 17.16 16.6796 16.92 16.7996 16.56L17.3996 6.35999C17.2796 5.99999 17.2796 5.87999 17.1596 5.87999Z" fill="white"/>
</svg>
