<svg width="64" height="32" viewBox="0 0 64 32" fill="none" xmlns="http://www.w3.org/2000/svg">
<rect width="64" height="32" rx="16" fill="#EE8208"/>
<path d="M32.2729 6.00314C29.4755 5.90323 27.2776 8.2011 27.1777 10.9985C27.1777 13.7959 29.4755 16.0938 32.173 16.0938C34.9704 16.0938 37.2683 13.8958 37.2683 11.0984C37.3682 8.30101 35.0704 6.00314 32.2729 6.00314ZM32.2729 13.4962C30.8742 13.4962 29.7753 12.3972 29.7753 11.0984C29.6754 9.69971 30.8742 8.60073 32.2729 8.60073C33.6716 8.60073 34.7706 9.69971 34.7706 11.0984C34.7706 12.4971 33.6716 13.4962 32.2729 13.4962ZM37.9677 18.0919C37.3682 18.6914 36.569 19.1909 35.7697 19.4906C34.9704 19.7903 34.0713 19.8902 33.272 20.0901C33.3719 20.19 33.4718 20.2899 33.4718 20.3898C34.6707 21.5887 35.7697 22.6876 36.8687 23.7866C37.2683 24.1863 37.3682 24.6858 37.0685 25.1853C36.8687 25.6849 36.3691 26.0845 35.7697 25.9846C35.47 25.9846 35.1703 25.7848 34.9705 25.585C34.0713 24.6858 33.1721 23.8865 32.3729 22.9874C32.173 22.7876 31.9732 22.7876 31.7734 22.9874C30.8742 23.8865 29.9751 24.7857 29.1758 25.585C28.7762 25.9846 28.2767 26.0845 27.7771 25.7848C27.2776 25.585 26.9779 25.0854 26.9779 24.5859C26.9779 24.1863 27.1777 23.9864 27.3775 23.6867C28.5764 22.4878 29.6754 21.3889 30.7743 20.2899C30.8742 20.19 30.8743 20.0901 30.9742 20.0901C29.4756 19.8902 27.9769 19.4906 26.878 18.5915C26.7781 18.4915 26.5782 18.3916 26.4783 18.1918C25.8789 17.6923 25.8789 17.0928 26.2785 16.4934C26.6781 15.9939 27.1777 15.894 27.877 16.0938C27.9769 16.1937 28.0768 16.1937 28.2767 16.2936C30.4746 17.7922 33.5717 17.8921 35.8696 16.3935C36.0694 16.1937 36.2692 16.0938 36.5689 15.9939C37.1684 15.894 37.568 16.0938 37.8678 16.5933C38.3673 17.0928 38.3673 17.6923 37.9677 18.0919Z" fill="white"/>
</svg>
