<svg width="20" height="16" viewBox="0 0 20 16" fill="none" xmlns="http://www.w3.org/2000/svg">
<path d="M20 13.1666C20 13.6051 19.8767 14.0115 19.6791 14.3691L13.3643 7.30376L19.6106 1.83875C19.8536 2.22436 20 2.67732 20 3.1668V13.1666ZM10 8.58662L18.6916 0.981684C18.335 0.786429 17.9333 0.666687 17.5001 0.666687H2.49998C2.06619 0.666687 1.66443 0.786429 1.3092 0.981684L10 8.58662ZM12.4232 8.12653L10.4113 9.888C10.2936 9.99051 10.1471 10.0417 10 10.0417C9.85287 10.0417 9.70633 9.99051 9.58865 9.888L7.57633 8.12645L1.18163 15.2821C1.56493 15.5226 2.01413 15.6667 2.49994 15.6667H17.5001C17.9858 15.6667 18.4352 15.5226 18.8184 15.2821L12.4232 8.12653ZM0.389439 1.83871C0.146493 2.22432 0 2.67728 0 3.1668V13.1667C0 13.6051 0.122751 14.0116 0.321056 14.3692L6.63513 7.30256L0.389439 1.83871Z" fill="white"/>
</svg>
