<svg width="20" height="20" viewBox="0 0 20 20" fill="none" xmlns="http://www.w3.org/2000/svg">
<g clip-path="url(#clip0)">
<path d="M2.61215 20H12.6613L13.0058 19.4713C14.2252 17.654 14.9799 15.5075 15.1865 13.3594C15.2443 12.9303 15.2734 12.4588 15.2734 11.9569V10.5859H14.1016V9.41406H1.17188V10.5859H0V11.9569C0 14.628 0.783844 17.2517 2.26303 19.4644L2.61215 20ZM7.65625 17.6172C6.36368 17.6172 5.3125 16.566 5.3125 15.2734C5.3125 13.9809 6.36368 12.9297 7.65625 12.9297C8.94882 12.9297 10 13.9809 10 15.2734C10 16.566 8.94882 17.6172 7.65625 17.6172Z" fill="white"/>
<path d="M7.65625 14.1016C7.01019 14.1016 6.48438 14.6274 6.48438 15.2734C6.48438 15.9195 7.01019 16.4453 7.65625 16.4453C8.30231 16.4453 8.82812 15.9195 8.82812 15.2734C8.82812 14.6274 8.30231 14.1016 7.65625 14.1016Z" fill="white"/>
<path d="M11.5329 4.57779L10.7449 3.89114L10.5705 4.92172C10.4749 5.48752 9.98856 5.89844 9.41406 5.89844H5.3125C3.89786 5.89844 2.71439 6.90659 2.44217 8.24219H12.8806C13.0719 6.85501 12.5926 5.50018 11.5329 4.57779Z" fill="white"/>
<path d="M12.9297 0C9.86969 0 7.29126 1.96976 6.32874 4.72656H9.41406L9.93881 1.63376L12.3032 3.69431C13.598 4.82147 14.241 6.51184 14.0536 8.24219H15.2734V9.41406H16.4453V11.9569C16.4453 12.3885 16.4088 12.7815 16.3696 13.1697C18.5384 11.954 20 9.65195 20 7.07031C20 3.19305 16.8069 0 12.9297 0Z" fill="white"/>
</g>
<defs>
<clipPath id="clip0">
<rect width="20" height="20" fill="white"/>
</clipPath>
</defs>
</svg>
