<svg xmlns="http://www.w3.org/2000/svg" viewBox="0 0 340 60"><defs><style>.cls-1{fill:#ffcd4e;}.cls-2{fill:#85ca6d;}.cls-3{fill:#448ee5;}.cls-4{fill:#df4f4f;}.cls-5{opacity:0.7;}</style></defs><title>Ресурс 1</title><g id="Слой_2" data-name="Слой 2"><g id="Слой_1-2" data-name="Слой 1"><path class="cls-1" d="M60,29.7A30,30,0,0,0,30,0h-.3V29.7Z"/><path class="cls-2" d="M29.7,0A30,30,0,0,0,0,29.7H29.7Z"/><path class="cls-3" d="M29.7,29.7V60H30A30,30,0,0,0,60,30c0-.1,0-.2,0-.3Z"/><path class="cls-4" d="M0,29.7c0,.1,0,.2,0,.3A30,30,0,0,0,29.7,60V29.7Z"/><path class="cls-5" d="M102.73,35.06q0,8.77-11.24,8.77H83V14.69H100.8v4.09h-13v7.75h3.47Q102.73,26.53,102.73,35.06Zm-15,4.76h3.43a8.83,8.83,0,0,0,5-1.13,4.14,4.14,0,0,0,1.59-3.64,3.87,3.87,0,0,0-1.6-3.48q-1.6-1.07-5.59-1.07H87.78Zm41.06-4.76A7.77,7.77,0,0,1,126,41.59q-2.88,2.24-8.34,2.24h-9.09V14.69h4.76V26.53h4.13q5.54,0,8.48,2.2A7.43,7.43,0,0,1,128.84,35.06ZM113.3,39.82h4a9,9,0,0,0,4.93-1.13A4,4,0,0,0,124,35.06a3.84,3.84,0,0,0-1.65-3.45q-1.65-1.1-5.54-1.1H113.3Zm58.35-10.6q0,7.14-3.38,11.07t-9.56,3.94q-5.92,0-9.26-3.54t-3.68-10h-6.34V43.83h-4.76V14.69h4.76V26.61h6.42q.56-6,3.87-9.19t9-3.19q6.16,0,9.55,3.95T171.64,29.22Zm-21,0q0,5.4,2,8.17a7.82,7.82,0,0,0,12,0q2-2.79,2-8.15t-2-8.15a6.85,6.85,0,0,0-5.9-2.75,7,7,0,0,0-6,2.77Q150.69,23.85,150.69,29.22ZM188,43.83h-4.76V18.77h-8.57V14.69h21.91v4.09H188Zm13-29.14h4.37V29.84q0,2.37-.12,4.79t-.18,3.28h.18l14.89-23.22h5.56V43.83h-4.39v-15q0-3.45.38-8.37h-.16l-15,23.4H201Zm44.73,3.67a7.85,7.85,0,0,0-6.46,2.91q-2.35,2.91-2.35,8,0,5.36,2.26,8.11a8,8,0,0,0,6.55,2.75,17.21,17.21,0,0,0,3.59-.37q1.73-.37,3.61-.95v4.09a21.87,21.87,0,0,1-7.77,1.3q-6.4,0-9.83-3.88t-3.43-11.09a17.93,17.93,0,0,1,1.66-8,11.88,11.88,0,0,1,4.81-5.22,14.56,14.56,0,0,1,7.4-1.81,18.35,18.35,0,0,1,8.25,1.87l-1.71,4a25.54,25.54,0,0,0-3.12-1.23A11.23,11.23,0,0,0,245.77,18.35Zm35.84,25.48H276L264,29.06V43.83h-4.76V14.69H264V28.8l11.8-14.11H281L269.28,28.76Zm29.72-14.61q0,7.12-3.56,11.06T297.7,44.23q-6.6,0-10.14-3.92T284,29.18q0-7.22,3.56-11.08t10.16-3.87q6.5,0,10,3.93T311.34,29.22Zm-22.25,0q0,5.38,2.17,8.16a8.84,8.84,0,0,0,12.85,0q2.16-2.75,2.16-8.19t-2.14-8.13a7.58,7.58,0,0,0-6.39-2.77,7.74,7.74,0,0,0-6.47,2.77Q289.09,23.85,289.09,29.22ZM340,43.83h-4.78V18.77H322.36V43.83h-4.76V14.69H340Z"/></g></g></svg>