<svg width="30" height="30" viewBox="0 0 30 30" fill="none" xmlns="http://www.w3.org/2000/svg">
<circle cx="15" cy="15" r="15" fill="#DF4F4F"/>
<path d="M19.8516 15.2734C19.8516 17.1328 19.3854 18.5781 18.4531 19.6094C17.526 20.6406 16.2109 21.1562 14.5078 21.1562C12.7839 21.1562 11.4583 20.6458 10.5312 19.625C9.60938 18.599 9.14844 17.1432 9.14844 15.2578C9.14844 13.3724 9.61198 11.9245 10.5391 10.9141C11.4714 9.90365 12.7995 9.39844 14.5234 9.39844C16.2214 9.39844 17.5339 9.91146 18.4609 10.9375C19.388 11.9635 19.8516 13.4089 19.8516 15.2734ZM11.1328 15.2734C11.1328 16.6797 11.4167 17.7474 11.9844 18.4766C12.5521 19.2005 13.3932 19.5625 14.5078 19.5625C15.6172 19.5625 16.4531 19.2031 17.0156 18.4844C17.5833 17.7656 17.8672 16.6953 17.8672 15.2734C17.8672 13.8724 17.5859 12.8099 17.0234 12.0859C16.4661 11.362 15.6328 11 14.5234 11C13.4036 11 12.5573 11.362 11.9844 12.0859C11.4167 12.8099 11.1328 13.8724 11.1328 15.2734Z" fill="white"/>
</svg>
