<svg width="20" height="20" viewBox="0 0 20 20" fill="none" xmlns="http://www.w3.org/2000/svg">
<path d="M16.419 12.2888H14.0776L15.0739 10.8501C16.9556 8.34194 16.6832 4.2192 14.4916 2.02786C13.3076 0.843579 11.7329 0.191277 10.0579 0.191277C8.38314 0.191277 6.80846 0.843579 5.62418 2.02786C3.43251 4.2192 3.16015 8.34227 5.03433 10.8403L6.03747 12.2891H3.58096L0 19.8091H20L16.419 12.2888ZM10.1157 4.11457C11.3775 4.11457 12.4045 5.14158 12.4045 6.40335C12.4045 7.66512 11.3775 8.69213 10.1157 8.69213C8.85398 8.69213 7.82697 7.66512 7.82697 6.40335C7.82697 5.14158 8.85365 4.11457 10.1157 4.11457ZM3.99425 12.9427H6.49032L10.0579 18.0948L13.6251 12.9427H16.0058L18.9642 19.1551H1.03584L3.99425 12.9427Z" fill="white"/>
</svg>
