<svg width="16" height="13" viewBox="0 0 16 13" fill="none" xmlns="http://www.w3.org/2000/svg">
<path d="M16 10.1333C16 10.484 15.9013 10.8092 15.7433 11.0953L10.6914 5.44299L15.6885 1.07099C15.8829 1.37947 16 1.74184 16 2.13342V10.1333ZM8.00002 6.46928L14.9533 0.385329C14.668 0.229125 14.3467 0.133331 14 0.133331H1.99999C1.65296 0.133331 1.33154 0.229125 1.04736 0.385329L8.00002 6.46928ZM9.93854 6.10121L8.32904 7.51038C8.2349 7.59239 8.11767 7.63334 8.00002 7.63334C7.88229 7.63334 7.76507 7.59239 7.67092 7.51038L6.06107 6.10114L0.945304 11.8257C1.25194 12.0181 1.61131 12.1333 1.99995 12.1333H14C14.3886 12.1333 14.7482 12.0181 15.0547 11.8257L9.93854 6.10121ZM0.311551 1.07095C0.117194 1.37944 0 1.7418 0 2.13342V10.1333C0 10.4841 0.0982006 10.8092 0.256845 11.0953L5.30811 5.44203L0.311551 1.07095Z" fill="white"/>
</svg>
