<svg width="12" height="10" viewBox="0 0 12 10" fill="none" xmlns="http://www.w3.org/2000/svg">
<path d="M12 8.09996C12 8.36303 11.926 8.60691 11.8075 8.82148L8.01857 4.58225L11.7664 1.30325C11.9122 1.53461 12 1.80638 12 2.10007V8.09996ZM6.00001 5.35197L11.215 0.789004C11.001 0.671851 10.76 0.600006 10.5 0.600006H1.49999C1.23972 0.600006 0.998658 0.671851 0.785522 0.789004L6.00001 5.35197ZM7.4539 5.07591L6.24678 6.13279C6.17618 6.1943 6.08825 6.22502 6.00001 6.22502C5.91172 6.22502 5.8238 6.1943 5.75319 6.13279L4.5458 5.07587L0.708978 9.36928C0.938956 9.51356 1.20848 9.6 1.49997 9.6H10.5C10.7915 9.6 11.0611 9.51356 11.291 9.36928L7.4539 5.07591ZM0.233663 1.30322C0.0878958 1.53459 0 1.80636 0 2.10007V8.09999C0 8.36305 0.0736504 8.60693 0.192634 8.8215L3.98108 4.58153L0.233663 1.30322Z" fill="black"/>
</svg>
