<svg width="48" height="48" viewBox="0 0 48 48" fill="none" xmlns="http://www.w3.org/2000/svg">
<path d="M41.1562 45.0001C40.7344 45.0001 40.3219 44.8126 40.05 44.4751L35.4187 38.8688H25.7062C24.0281 38.8688 22.6594 37.5001 22.6594 35.822V21.7876C22.6594 20.1095 24.0281 18.7407 25.7062 18.7407H44.9437C46.6219 18.7407 47.9906 20.1095 47.9906 21.7876V35.8126C47.9906 37.4907 46.6219 38.8595 44.9437 38.8595H43.8094L42.5531 43.9032C42.4219 44.4282 42 44.8407 41.475 44.9626C41.3719 44.9907 41.2594 45.0001 41.1562 45.0001Z" fill="#7C107E"/>
<path d="M10.3031 41.9812C10.2 41.9812 10.0875 41.9719 9.98438 41.9437C9.45 41.8219 9.0375 41.4187 8.90625 40.8844L6.81562 32.5031H3.92813C1.7625 32.5125 0 30.75 0 28.5844V6.92812C0 4.7625 1.7625 3 3.92813 3H33.6281C35.7938 3 37.5563 4.7625 37.5563 6.92812V28.5844C37.5563 30.75 35.7938 32.5125 33.6281 32.5125H18.7969L11.4188 41.4562C11.1375 41.7937 10.725 41.9812 10.3031 41.9812Z" fill="#F2F2F2"/>
<path d="M14.1656 25.9312C13.8656 25.9312 13.5656 25.8375 13.3219 25.6593C12.8813 25.3406 12.6563 24.7875 12.75 24.2531L13.5 19.875L10.3125 16.7718C9.91876 16.3875 9.77813 15.8156 9.94688 15.3C10.1156 14.775 10.5656 14.4 11.1094 14.3156L15.5063 13.6781L17.475 9.6937C17.7188 9.2062 18.2156 8.88745 18.7688 8.88745C19.3219 8.88745 19.8188 9.19683 20.0625 9.6937L22.0312 13.6781L26.4281 14.3156C26.9719 14.3906 27.4219 14.775 27.5906 15.3C27.7594 15.825 27.6187 16.3968 27.225 16.7718L24.0375 19.875L24.7875 24.2531C24.8812 24.7968 24.6562 25.3406 24.2156 25.6593C23.775 25.9781 23.1844 26.025 22.6969 25.7718L18.7594 23.7L14.8219 25.7718C14.625 25.875 14.4 25.9312 14.1656 25.9312Z" fill="#7C107E"/>
</svg>
