<svg width="48" height="48" viewBox="0 0 48 48" fill="none" xmlns="http://www.w3.org/2000/svg">
<g clip-path="url(#clip0)">
<path d="M48 15V45H0V3H36L48 15Z" fill="#F2F2F2"/>
<path d="M42.15 25.1719C42.15 24.7125 41.775 24.3469 41.325 24.3469H6.67498C6.2156 24.3469 5.84998 24.7219 5.84998 25.1719C5.84998 25.6313 6.22498 25.9969 6.67498 25.9969H41.325C41.7844 26.0062 42.15 25.6313 42.15 25.1719ZM42.15 30.4594C42.15 30 41.775 29.6344 41.325 29.6344H6.67498C6.2156 29.6344 5.84998 30.0094 5.84998 30.4594C5.84998 30.9187 6.22498 31.2844 6.67498 31.2844H41.325C41.7844 31.2938 42.15 30.9187 42.15 30.4594ZM42.15 35.7469C42.15 35.2875 41.775 34.9219 41.325 34.9219H6.67498C6.2156 34.9219 5.84998 35.2969 5.84998 35.7469C5.84998 36.2062 6.22498 36.5719 6.67498 36.5719H41.325C41.7844 36.5719 42.15 36.2062 42.15 35.7469ZM48 15H36V3L48 15ZM48 15L36 3L48 15ZM24.75 9.7125H6.67498C6.2156 9.7125 5.84998 9.34688 5.84998 8.8875C5.84998 8.42813 6.2156 8.0625 6.67498 8.0625H24.75C25.2094 8.0625 25.575 8.42813 25.575 8.8875C25.575 9.34688 25.2094 9.7125 24.75 9.7125ZM24.75 15H6.67498C6.2156 15 5.84998 14.6344 5.84998 14.175C5.84998 13.7156 6.2156 13.35 6.67498 13.35H24.75C25.2094 13.35 25.575 13.7156 25.575 14.175C25.575 14.6344 25.2094 15 24.75 15Z" fill="#7C107E"/>
</g>
<defs>
<clipPath id="clip0">
<rect width="48" height="48" fill="white"/>
</clipPath>
</defs>
</svg>
