<svg width="48" height="48" viewBox="0 0 48 48" fill="none" xmlns="http://www.w3.org/2000/svg">
<path d="M48 8.33447H0V45.0001H48V8.33447Z" fill="#F2F2F2"/>
<path d="M0 3H48V8.33438H0V3ZM41.5969 17.0625H6.40313C5.9625 17.0625 5.60625 16.7063 5.60625 16.2656C5.60625 15.825 5.9625 15.4688 6.40313 15.4688H41.6062C42.0469 15.4688 42.4031 15.825 42.4031 16.2656C42.4031 16.7063 42.0375 17.0625 41.5969 17.0625ZM21.8625 21.3375H6.39375C5.95312 21.3375 5.59688 20.9813 5.59688 20.5406C5.59688 20.1 5.95312 19.7438 6.39375 19.7438H21.8625C22.3031 19.7438 22.6594 20.1 22.6594 20.5406C22.6594 20.9813 22.3125 21.3375 21.8625 21.3375ZM21.8625 25.6031H6.39375C5.95312 25.6031 5.59688 25.2469 5.59688 24.8063C5.59688 24.3656 5.95312 24.0094 6.39375 24.0094H21.8625C22.3031 24.0094 22.6594 24.3656 22.6594 24.8063C22.6594 25.2469 22.3125 25.6031 21.8625 25.6031ZM21.8625 29.8688H6.39375C5.95312 29.8688 5.59688 29.5125 5.59688 29.0719C5.59688 28.6313 5.95312 28.275 6.39375 28.275H21.8625C22.3031 28.275 22.6594 28.6313 22.6594 29.0719C22.6594 29.5125 22.3125 29.8688 21.8625 29.8688ZM26.1375 20.5312H41.6062V33.3281H26.1375V20.5312ZM21.8625 34.1344H6.39375C5.95312 34.1344 5.59688 33.7781 5.59688 33.3375C5.59688 32.8969 5.95312 32.5406 6.39375 32.5406H21.8625C22.3031 32.5406 22.6594 32.8969 22.6594 33.3375C22.6594 33.7781 22.3125 34.1344 21.8625 34.1344Z" fill="#7C107E"/>
</svg>
