<svg width="16" height="16" viewBox="0 0 16 16" fill="none" xmlns="http://www.w3.org/2000/svg">
<g clip-path="url(#clip0)">
<path d="M15.9275 12.7559L15.8462 12.5121C15.6587 11.9528 15.04 11.3684 14.4712 11.2121L12.3681 10.6371C11.7994 10.484 10.9869 10.6903 10.5681 11.109L9.80873 11.8684C7.04623 11.1215 4.87748 8.95277 4.1306 6.18715L4.88998 5.42777C5.30561 5.01215 5.51498 4.19965 5.36186 3.62778L4.78998 1.52465C4.63686 0.955903 4.04935 0.337153 3.48998 0.149653L3.24935 0.0715284C2.68998 -0.115971 1.88685 0.0746534 1.47123 0.490278L0.333728 1.6309C0.130603 1.83403 -0.000646812 2.41215 -0.000646812 2.41215C-0.0381468 6.02777 1.37748 9.50902 3.93373 12.0653C6.48373 14.6153 9.94936 16.0309 13.5525 15.9996C13.5712 15.9996 14.1681 15.8715 14.3712 15.6684L15.5087 14.5309C15.9244 14.1153 16.1119 13.3153 15.9275 12.7559Z" fill="white"/>
</g>
<defs>
<clipPath id="clip0">
<rect width="16" height="16" fill="white"/>
</clipPath>
</defs>
</svg>
