<svg width="16" height="16" viewBox="0 0 16 16" fill="none" xmlns="http://www.w3.org/2000/svg">
<path d="M14 12C13.0938 12 12.3312 12.6062 12.0875 13.4344H0V14.5688H12.0875C12.3312 15.3938 13.0938 16 14 16C15.1031 16 16 15.1031 16 14C16 12.8969 15.1031 12 14 12Z" fill="white"/>
<path d="M7.94063 6C7.025 6 6.25 6.60312 5.98438 7.43437H0V8.56875H5.94688C6.175 9.45938 6.98125 10.1187 7.94063 10.1187C8.9 10.1187 9.70625 9.45625 9.93437 8.56875H16V7.43437H9.89688C9.63125 6.60312 8.85625 6 7.94063 6Z" fill="white"/>
<path d="M3.9125 1.43438C3.66875 0.60625 2.90625 0 2 0C0.896875 0 0 0.896875 0 2C0 3.10313 0.896875 4 2 4C2.90625 4 3.66875 3.39375 3.9125 2.56562H16V1.43438H3.9125Z" fill="white"/>
</svg>
