<svg width="12" height="12" viewBox="0 0 12 12" fill="none" xmlns="http://www.w3.org/2000/svg">
<path d="M11.9447 9.56674L11.8838 9.38393C11.7431 8.96439 11.2791 8.52611 10.8525 8.40893L9.27516 7.97768C8.84859 7.86283 8.23922 8.01752 7.92516 8.33158L7.35562 8.90111C5.28375 8.34096 3.65719 6.7144 3.09703 4.64018L3.66656 4.07065C3.97828 3.75893 4.13531 3.14955 4.02047 2.72065L3.59156 1.14331C3.47672 0.716744 3.03609 0.252682 2.61656 0.112057L2.43609 0.0534632C2.01656 -0.0871617 1.41422 0.055807 1.1025 0.367525L0.249373 1.22299C0.0970293 1.37534 -0.00140827 1.80893 -0.00140827 1.80893C-0.0295333 4.52065 1.03219 7.13158 2.94937 9.04877C4.86187 10.9613 7.46109 12.023 10.1634 11.9995C10.1775 11.9995 10.6252 11.9035 10.7775 11.7511L11.6306 10.898C11.9423 10.5863 12.083 9.98627 11.9447 9.56674Z" fill="black"/>
</svg>
