<svg width="12" height="12" viewBox="0 0 12 12" fill="none" xmlns="http://www.w3.org/2000/svg">
<path d="M9.06 7.5L9 7.8C8.94 8.16 8.76 8.4 8.46 8.58C8.1 8.82 7.62 8.88 7.08 8.76C5.28 8.22 4.2 7.02 3.66 6.3C3.12 5.52 2.88 4.8 3 4.2C3.12 3.78 3.42 3.48 3.6 3.3C3.72 3.24 3.84 3.18 3.96 3.18L4.38 3.24C4.44 3.24 4.5 3.3 4.56 3.36L5.1 4.68C5.16 4.74 5.1 4.8 5.04 4.86L4.56 5.4C4.5 5.46 4.5 5.52 4.56 5.58C5.22 6.84 6.42 7.32 6.72 7.44C6.78 7.44 6.84 7.44 6.9 7.38L7.44 6.72C7.5 6.66 7.62 6.66 7.68 6.66L9 7.26C9.06 7.32 9.06 7.44 9.06 7.5ZM8.94 7.26L7.62 6.66C7.5 6.66 7.44 6.66 7.38 6.72L6.84 7.38C6.78 7.44 6.72 7.44 6.66 7.44C6.3 7.32 5.1 6.84 4.5 5.58C4.5 5.52 4.5 5.46 4.5 5.4L4.98 4.86C5.1 4.8 5.1 4.74 5.04 4.68L4.5 3.3C4.44 3.24 4.38 3.24 4.32 3.18H3.96C3.84 3.18 3.72 3.24 3.6 3.3C3.42 3.48 3.12 3.78 3 4.2C2.88 4.8 3.06 5.58 3.66 6.3C4.2 7.02 5.22 8.28 7.08 8.76C7.68 8.94 8.16 8.82 8.46 8.58C8.76 8.4 8.94 8.1 9 7.8L9.06 7.5C9.06 7.44 9.06 7.32 8.94 7.26ZM8.94 7.26L7.62 6.66C7.5 6.66 7.44 6.66 7.38 6.72L6.84 7.38C6.78 7.44 6.72 7.44 6.66 7.44C6.3 7.32 5.1 6.84 4.5 5.58C4.5 5.52 4.5 5.46 4.5 5.4L4.98 4.86C5.1 4.8 5.1 4.74 5.04 4.68L4.5 3.3C4.44 3.24 4.38 3.24 4.32 3.18H3.96C3.84 3.18 3.72 3.24 3.6 3.3C3.42 3.48 3.12 3.78 3 4.2C2.88 4.8 3.06 5.58 3.66 6.3C4.2 7.02 5.22 8.28 7.08 8.76C7.68 8.94 8.16 8.82 8.46 8.58C8.76 8.4 8.94 8.1 9 7.8L9.06 7.5C9.06 7.44 9.06 7.32 8.94 7.26ZM12 6C12 9.3 9.3 12 6 12C4.98 12 3.96 11.76 3.06 11.22L0 12L0.84 9C0.3 8.1 0 7.02 0 6C0 2.7 2.7 0 6 0C9.3 0 12 2.7 12 6ZM10.98 6C10.98 3.3 8.76 1.02 6 1.02C3.24 1.02 1.02 3.24 1.02 6C1.02 6.96 1.32 7.92 1.8 8.7L1.92 8.88L1.44 10.62L3.24 10.14L3.42 10.2C4.2 10.68 5.1 10.92 6 10.92C8.76 10.98 10.98 8.7 10.98 6ZM8.94 7.26L7.62 6.66C7.5 6.66 7.44 6.66 7.38 6.72L6.84 7.38C6.78 7.44 6.72 7.44 6.66 7.44C6.3 7.32 5.1 6.84 4.5 5.58C4.5 5.52 4.5 5.46 4.5 5.4L4.98 4.86C5.1 4.8 5.1 4.74 5.04 4.68L4.5 3.3C4.44 3.24 4.38 3.24 4.32 3.18H3.96C3.84 3.18 3.72 3.24 3.6 3.3C3.42 3.48 3.12 3.78 3 4.2C2.88 4.8 3.06 5.58 3.66 6.3C4.2 7.02 5.22 8.28 7.08 8.76C7.68 8.94 8.16 8.82 8.46 8.58C8.76 8.4 8.94 8.1 9 7.8L9.06 7.5C9.06 7.44 9.06 7.32 8.94 7.26ZM12 6C12 9.3 9.3 12 6 12C4.98 12 3.96 11.76 3.06 11.22L0 12L0.84 9C0.3 8.1 0 7.02 0 6C0 2.7 2.7 0 6 0C9.3 0 12 2.7 12 6ZM10.98 6C10.98 3.3 8.76 1.02 6 1.02C3.24 1.02 1.02 3.24 1.02 6C1.02 6.96 1.32 7.92 1.8 8.7L1.92 8.88L1.44 10.62L3.24 10.14L3.42 10.2C4.2 10.68 5.1 10.92 6 10.92C8.76 10.98 10.98 8.7 10.98 6Z" fill="black"/>
</svg>
